<svg xmlns="http://www.w3.org/2000/svg" xmlns:xlink="http://www.w3.org/1999/xlink" width="360" height="540"><g transform="translate(0 -512.36)"><rect width="359" height="539" x=".5" y="512.86" fill="#fff" stroke="#000" rx="29.94"/><g fill="#f55" transform="translate(5 22.36)"><path id="a" d="m10 80-5 7v7l5-7v43h5V80z" transform="translate(0 440)"/><path id="b" d="M30 520c-5.54 0-10 4.46-10 10v30c0 5.54 4.46 10 10 10s10-4.46 10-10v-30c0-5.54-4.46-10-10-10m0 5c2.77 0 5 2.23 5 5v30a4.99 4.99 0 1 1-10 0v-30c0-2.77 2.23-5 5-5"/></g><g fill="#f55"><g transform="matrix(-1 0 0 -1 355 1542.36)"><use xlink:href="#a"/><use xlink:href="#b"/></g><path d="M100 562.36s8 13.33 17.33 22.67c9.34 9.33 22.67 17.33 22.67 17.33s-13.33 8-22.67 17.33C108 629.03 100 642.36 100 642.36s-8-13.33-17.33-22.67C73.33 610.36 60 602.36 60 602.36s13.33-8 22.67-17.33C92 575.69 100 562.36 100 562.36m230 370s3 5 6.5 8.5 8.5 6.5 8.5 6.5-5 3-8.5 6.5-6.5 8.5-6.5 8.5-3-5-6.5-8.5-8.5-6.5-8.5-6.5 5-3 8.5-6.5 6.5-8.5 6.5-8.5m-300-330s3 5 6.5 8.5 8.5 6.5 8.5 6.5-5 3-8.5 6.5-6.5 8.5-6.5 8.5-3-5-6.5-8.5-8.5-6.5-8.5-6.5 5-3 8.5-6.5 6.5-8.5 6.5-8.5m230-40s8 13.33 17.33 22.67c9.34 9.33 22.67 17.33 22.67 17.33s-13.33 8-22.67 17.33C268 629.03 260 642.36 260 642.36s-8-13.33-17.33-22.67c-9.34-9.33-22.67-17.33-22.67-17.33s13.33-8 22.67-17.33C252 575.69 260 562.36 260 562.36m0 120s8 13.33 17.33 22.67c9.34 9.33 22.67 17.33 22.67 17.33s-13.33 8-22.67 17.33C268 749.03 260 762.36 260 762.36s-8-13.33-17.33-22.67c-9.34-9.33-22.67-17.33-22.67-17.33s13.33-8 22.67-17.33C252 695.69 260 682.36 260 682.36m0 120s8 13.33 17.33 22.67c9.34 9.33 22.67 17.33 22.67 17.33s-13.33 8-22.67 17.33C268 869.03 260 882.36 260 882.36s-8-13.33-17.33-22.67c-9.34-9.33-22.67-17.33-22.67-17.33s13.33-8 22.67-17.33C252 815.69 260 802.36 260 802.36m0 120s8 13.33 17.33 22.67c9.34 9.33 22.67 17.33 22.67 17.33s-13.33 8-22.67 17.33c-9.33 9.34-17.33 22.67-17.33 22.67s-8-13.33-17.33-22.67c-9.34-9.33-22.67-17.33-22.67-17.33s13.33-8 22.67-17.33C252 935.69 260 922.36 260 922.36m-160-240s8 13.33 17.33 22.67c9.34 9.33 22.67 17.33 22.67 17.33s-13.33 8-22.67 17.33C108 749.03 100 762.36 100 762.36s-8-13.33-17.33-22.67C73.33 730.36 60 722.36 60 722.36s13.33-8 22.67-17.33C92 695.69 100 682.36 100 682.36m0 120s8 13.33 17.33 22.67c9.34 9.33 22.67 17.33 22.67 17.33s-13.33 8-22.67 17.33C108 869.03 100 882.36 100 882.36s-8-13.33-17.33-22.67C73.33 850.36 60 842.36 60 842.36s13.33-8 22.67-17.33C92 815.69 100 802.36 100 802.36m0 120s8 13.33 17.33 22.67c9.34 9.33 22.67 17.33 22.67 17.33s-13.33 8-22.67 17.33c-9.33 9.34-17.33 22.67-17.33 22.67s-8-13.33-17.33-22.67C73.33 970.36 60 962.36 60 962.36s13.33-8 22.67-17.33C92 935.69 100 922.36 100 922.36m80-300s8 13.33 17.33 22.67c9.34 9.33 22.67 17.33 22.67 17.33s-13.33 8-22.67 17.33C188 689.03 180 702.36 180 702.36s-8-13.33-17.33-22.67c-9.34-9.33-22.67-17.33-22.67-17.33s13.33-8 22.67-17.33C172 635.69 180 622.36 180 622.36m0 240s8 13.33 17.33 22.67c9.34 9.33 22.67 17.33 22.67 17.33s-13.33 8-22.67 17.33C188 929.03 180 942.36 180 942.36s-8-13.33-17.33-22.67c-9.34-9.33-22.67-17.33-22.67-17.33s13.33-8 22.67-17.33C172 875.69 180 862.36 180 862.36"/></g></g></svg>