<svg xmlns="http://www.w3.org/2000/svg" xmlns:xlink="http://www.w3.org/1999/xlink" width="360" height="540"><defs><path id="a" d="M181.5 144a2.44 2.5 0 1 1-4.87 0 2.44 2.5 0 1 1 4.87 0" style="fill:#fa5;stroke:#000;stroke-linecap:round;stroke-linejoin:round;stroke-dashoffset:1"/><path id="d" d="M218.5 34.6a2.03 1.94 0 1 1-4.07 0 2.03 1.94 0 1 1 4.07 0" style="stroke:#000;stroke-linecap:round;stroke-linejoin:round;stroke-dashoffset:1"/><path id="b" d="M118.22 654.61c.18-.7 1.05-1.04 1.45-1.65q.76-1.21 1.3-2.54c.35-.86.69-1.72 1.11-2.54.33-.64.8-1.23 1.02-1.91q.43-1.34.65-2.72c.08-.45-.02-.97.21-1.37a1 1 0 0 1 .84-.44c.32.02.72.22.8.53.2.73.1 1.53-.02 2.28q-.15.91-.58 1.76-.61 1.22-1.1 2.5c-.38.95-.9 1.84-1.35 2.74-.37.73-.79 1.43-1.06 2.2-.1.29-.22.57-.47.79-.52.46-1 .96-1.55 1.4-.23.2-.32-.08-.46-.2-.28-.26-.89-.46-.79-.83z" style="fill:#ffff56;stroke:#000"/><path id="c" d="M126.3 127.98a.93 1.64 0 1 1-1.85 0 .93 1.64 0 1 1 1.86 0z" style="fill:#ff5;stroke:#000"/><path id="e" d="M240.72 734.21c2.21 3.63 1.44 7.75.93 10.7l-.9 1.8" style="fill:none;stroke:#000;stroke-linecap:round;stroke-linejoin:round"/><path id="f" d="M236.61 739.2c.43 3.37 1.05 8.24.91 11.36" style="fill:none;stroke:#000;stroke-linecap:round;stroke-linejoin:round"/><path id="g" d="M238.4 736.19c.4 2.22 1.87 5.83 1.2 8.06-.15.63-.34 3.74-.54 4.35" style="fill:none;stroke:#000;stroke-linecap:round;stroke-linejoin:round"/><path id="h" d="M235.28 732.48c-1.74 3.72-1.12 6.7-.7 10.04-.1 1.17.43 3.58.72 4.7.28 1.86.76 3.14.76 5.03-.03.84-.16 2.4.13 2.7 1.07-.1 1.06-1.57 1.17-2.47.1-1.26.3-2.69 1.3-3.49 1.02-.92 2.18-1.67 3.01-2.82a11.3 11.3 0 0 0 2.92-6.45" style="fill:none;stroke:#000;stroke-linecap:round;stroke-linejoin:round"/></defs><g transform="translate(0 -512.36)"><rect width="359" height="539" x=".5" y="512.86" rx="29.94" style="fill:#fff;stroke:#000"/><path d="M22 542.36v5l-2 40h-3v10h5v-5h16v5h5v-10h-3v-45zm5 5h8v40H25zm311 475v-5l2-40h3v-10h-5v5h-16v-5h-5v10h3v45zm-5-5h-8v-40h10z"/><path d="M50 542.36h280v380m-20 100H30v-380m0 140h300" style="fill:none;stroke:#000;stroke-width:2;stroke-linecap:square"/><g transform="translate(-2 -.32)"><path id="i" d="M173.25 30.5c-2.13.02-3.45 2.54-5 4-.81.77-1.59 1.6-2.25 2.5a20 20 0 0 0-2.75 5.5c-.47 1.32-.77 2.69-1.25 4-.52 1.44-1.2 2.82-1.75 4.25-.54 1.4-1.1 2.8-1.5 4.25-.44 1.56-.5 3.21-1 4.75-.25.78-.83 1.45-1 2.25-.17.82 0 1.67 0 2.5v2.75c0 .67.13 1.35 0 2-.25 1.32-1.07 2.47-1.5 3.75-.71 2.13-1 4.39-1.75 6.5-.61 1.72-1.58 3.3-2.25 5-.38.98-.83 1.96-1 3q-.15 1 0 2c.13.78.25 1.64.75 2.25a2.8 2.8 0 0 0 1.75 1c.6.07 1.16-.34 1.75-.5.66-.18 1.33-.65 2-.5a2 2 0 0 1 1.25 1c.16.34.02.75 0 1.13-.02.46.02.93-.12 1.37q-.24.7-.75 1.25c-.18.17-.42.25-.63.38-.25.16-.6.23-.75.5-.12.22-.05.5 0 .75q.1.46.38.87.21.34.5.63c.15.17.28.4.5.5.3.14.69-.01 1 .12.3.13.76.3.75.63-.02.3-.53.3-.75.5q-.3.27-.5.62c-.12.2-.16.42-.25.63-.08.17-.23.31-.25.5a2.4 2.4 0 0 0 .25 1.62c.18.3.54.48.87.63.2.08.44.03.63.12.44.22.85.58 1.12 1 .23.37.31.82.38 1.25.05.37-.03.75 0 1.13.02.29-.13.42-.25.68-.17.36-.25.9-.44 1.25-.35.62-.2.98-.2 1.7 0 .5-.1 1 0 1.5q.16.6.5 1.12c.24.34.6.56.88.87.36.4.6.9 1 1.25.52.44 1.16.7 1.75 1 .53.27 1.06.56 1.63.75q1.1.4 2.25.5c.91.08 1.83-.18 2.75-.12.97.06 1.9.41 2.87.5q1.06.08 2.13 0c.59-.05 1.16-.28 1.75-.25.55.02 1.09.22 1.62.37.77.22 1.69.2 2.25.75.45.43.52 1.14.63 1.75.11.66 0 1.33 0 2v1.5c-.02.71.06 1.44-.13 2.13-.07.27-.3.47-.37.75-.12.52.04 1.08 0 1.62-.04.55-.2 1.08-.25 1.63-.04.45 0 .91 0 1.37 0 .96-.03 1.92 0 2.88.02.79.36 1.62.12 2.37-.14.45-.56.77-.87 1.13q-.64.73-1.38 1.37c-.74.64-1.59 1.16-2.37 1.75-.8.61-1.53 1.33-2.38 1.88-1.44 1.04-2.83 1.48-4.1 2.17-3.07 1.7-7.65 3.4-10.83 5.43s-6 4.54-9.1 6.84-5.03 4.54-7.84 7.07a85 85 0 0 0-7.75 7.87c2.41 1.98 2.97 2.53 4.5 3.75 1.72 1.37 3.33 2.92 5.25 4 3.2 1.79 6.77 2.82 10.25 4 2.87.96 5.81 1.74 8.75 2.5 2.15.55 4.31 1.1 6.5 1.5q2.74.48 5.5.75c3.74.37 7.5.56 11.25.75q4 .19 8 .25c2.42.03 4.84.16 7.25 0 2.43-.17 4.85-.59 7.25-1 1.6-.28 3.15-.76 4.75-1 1.74-.27 3.5-.29 5.25-.5q3.26-.41 6.5-1c1.93-.36 3.82-.9 5.75-1.25 1.58-.3 3.16-.52 4.75-.75 1.16-.18 2.6.25 3.5-.5.4-.34.5-.98.5-1.5 0-1.06-.5-2.08-1-3-.7-1.31-2.12-2.16-2.75-3.5-.33-.7-.28-1.52-.5-2.25-.47-1.54-1.45-2.92-1.75-4.5-.1-.5.18-1.04 0-1.5-.4-1.05-1.54-1.64-2.25-2.5-.8-.97-1.78-1.85-2.25-3-.25-.63-.19-1.34-.25-2-.13-1.33.13-2.72-.25-4-.2-.65-.68-1.16-1-1.75-.62-1.15-.96-2.47-1.75-3.5-.68-.9-1.85-1.34-2.5-2.25-.74-1.04-1.08-2.3-1.5-3.5-.31-.9-.44-1.86-.75-2.75-.84-2.4-2.3-4.56-3-7-.46-1.63-.36-3.37-.75-5-.25-1.03-.7-2-1-3-.48-1.65-.8-3.35-1.25-5q-.49-1.77-1-3.5c-.26-.92-.55-1.83-.75-2.76a49 49 0 0 1-1-6.5c-.12-1.57.06-3.16 0-4.75-.04-1.08-.07-2.17-.25-3.25-.22-1.27-.64-2.5-1-3.75a73 73 0 0 0-1.5-4.75c-.81-2.2-2.28-4.19-2.75-6.5-.27-1.3-.08-2.66 0-4 .08-1.42.53-2.82.5-4.25-.02-1-.26-2-.5-3-.39-1.61-1.11-3.13-1.5-4.75-.24-.98-.22-2.02-.5-3-.48-1.65-1.54-3.09-2-4.75-.32-1.13-.23-2.35-.5-3.5-.3-1.28-.85-2.49-1.25-3.75-.26-.82-.59-1.64-.75-2.5-.18-.9-.2-1.83-.25-2.75-.06-1.33.27-2.69 0-4-.3-1.42-1.26-2.63-1.75-4-.41-1.14-.56-2.36-1-3.5-.34-.86-.87-1.65-1.25-2.5-.37-.81-.56-1.71-1-2.5-.4-.72-1.02-1.32-1.5-2-.52-.73-.75-1.74-1.5-2.25-.79-.73-1.17-1.08-2-.75-6.08.1-10.22-.3-16.75-.25" style="fill:#faa;stroke:#000;stroke-linecap:round;stroke-linejoin:round" transform="translate(0 512.36)"/><use xlink:href="#a" width="360" height="540" transform="translate(-20.19 522.36)"/><use xlink:href="#a" width="360" height="540" transform="translate(35.06 510.86)"/><path d="M160.31 573.8c-.33.61.07 1.1.16 1.82.25.7 1.24.47 1.77.2.63-.3.83-.8 1.38-1.24.56-.59.95-1.45 1.82-1.65 1.07-.33 2.2-.26 3.31-.36 1 0 2.01.05 2.98.3.77.17 1.1.91 1.41 1.54.25.57.83.94 1.46.88.83-.12 1.62.18 2.32.62l.33.2" style="fill:none;stroke:#000;stroke-linecap:round;stroke-linejoin:round"/><path id="j" d="M160.16 580.46c.89.44 1.75.92 2.69 1.25.87.31 1.71.7 2.56 1.05.77.1 1.53.31 2.3.26q.9 0 1.8.12 1.24.43 2.43.97c.54.47 1.02 1.02 1.65 1.39h.45" style="fill:none;stroke:#000;stroke-linecap:round;stroke-linejoin:round"/><path id="k" d="M162.28 580.72c.66 0 1.39.27 2-.11.36-.24.69-.59.82-1.01.04-.39-.02-.89.4-1.1.66-.43 1.6-.34 2.16.22.24.19.4.47.33.78 0 .42.47.6.8.73.71.26 1.5.2 2.24.22" style="fill:none;stroke:#000;stroke-linecap:round;stroke-linejoin:round"/><path id="l" d="M163.87 583.11c.37.88-.18 2.44.18 3.54.18.55.53.67 1.08.9.27.14.53.32.8.42q1.45-.14 2.89-.35c.5-.4.98-.8 1.54-1.1.4-.26.9-.3 1.35-.47.46-.19.96-.08 1.44-.11a17 17 0 0 0-2.37-1.3c-.54-.22-1.05-.53-1.6-.75-.5-.07-.99-.21-1.5-.13-.44.02-.9.11-1.32-.04-.69-.18-1.42-.15-2.07-.46z" style="fill:#fff;stroke:#000;stroke-linecap:round;stroke-linejoin:round"/><path id="m" d="M168.03 585.76c.02 1.31-1.24 2.28-2.34 2-1.03-.18-1.83-1.46-1.46-2.6.38-1.36 2.02-1.86 3.02-1.03.47.36.78.98.78 1.63" style="fill:#a50;stroke:#000;stroke-linecap:round;stroke-linejoin:round;stroke-dashoffset:1"/><path id="n" d="M166.08 585.54c.04 1-1.08.37-.65-.32.21-.55.72-.08.65.32" style="fill:#faa;fill-opacity:.50199998;stroke:#000;stroke-linecap:round;stroke-linejoin:round;stroke-dashoffset:1"/><path id="o" d="M164.61 39.22c.56.57 2.14.25 2.8-.2.86-.6 1.31-2.03 1.94-2.48.68.2.19 1.41.18 2.12-.01 1.13-.37 2.23-.35 3.36a6 6 0 0 0 1.06 3.53c.78 1 1.78 1.25 3 1.6 1.04.29 2.14.28 3.19.53q1.18.25 2.3.7c.55.24 1.21.4 1.59.89.68.86.66 2.1.88 3.18.17.81-.03 1.74.36 2.47.9 1.7 3.26 2.24 4.24 3.9.62 1.04.63 2.34.88 3.53.21 1 .17 2.05.53 3 .32.85.73 1.72 1.42 2.3.58.5 1.39.66 2.12.89.75.24 1.93-.17 2.3.53.29.56-.61 1.14-.71 1.77-.13.82-.25 1.77.18 2.47.46.77 1.66 1.6 2.51 1.33 1.56-.5 2.61 1.86 1.55 2.74s-1.19 1.05-1.41 1.77c-.23.73.14 1.53.17 2.3.06 1.35-.3 2.74 0 4.06.19.77 1.27 1.36 1.07 2.12-.22.82-1.55.79-2.13 1.42-.5.54-.76 1.26-1.06 1.94-.52 1.2-1.33 2.41-1.23 3.71.1 1.58 1.27 2.91 2.12 4.25.4.63.95 1.16 1.41 1.76.49.64.92 1.32 1.42 1.95q1.09 1.37 2.3 2.65c.4.43.88.77 1.23 1.24.65.86 1.37 1.77 1.6 2.83.11.58-.01 1.2-.19 1.76-.25.84-.9 1.5-1.23 2.3s-.47 1.65-.7 2.48c-.24.76-.6 1.5-.72 2.3-.08.58-.32 1.27 0 1.76s1.06.48 1.6.71c.82.36 1.95.33 2.47 1.06.45.63-.05 1.57.18 2.3.24.78.9 1.37 1.23 2.12.23.5.44 1.04.53 1.6.13.75-.03 1.52 0 2.29.06 1.36.37 2.18-.14 3.44-.2.5-1.26.94-1.49 1.44-.1.21.56.81.75.95.45.33 1.16-.18 1.6-.53.53-.43.87-1.1 1.05-1.77.15-.5 0-1.06 0-1.59v-3.7c0-.48-.47-1.38 0-1.42.3-.03.47.44.62.7.32.55.55.95.97 1.42.34.37.89-.18.89 1.24v2.12c0 .82.13 1.66 0 2.47a3 3 0 0 1-.36 1.06c-.26.48-.73.8-1.06 1.24-.25.34-.18 1.14-.42 1.5-.23.35-1.1.27-1.17.89-.1.98 1.84.58 2.17.4.47-.27.47-1.77.91-2.1a9 9 0 0 0 2.23-2.46c.34-.62.07-1.42 0-2.12-.06-.6-.93-1.58-.36-1.77.55-.17.47 1.06.7 1.6.24.52.6 1.02.72 1.59.04.23-.05.47 0 .7.09.44-.18 1.06.53 1.24.7.18.66 1.09 1.06 1.6.59.75.84 1.09 1.19 1.98.15.38.35.97.4 1.46.35 3.87.84 4.06 1.94 5.74.21.32.6.46.89.71q.08.1.17.18c.22.09.48-.06.71 0 .39.09.7.38 1.06.53.52.21 1.19.91 1.6.53.48-.47-.34-1.3-.54-1.95a98 98 0 0 0-2.3-6.72c-.37-.96-.96-1.83-1.23-2.82-.4-1.5-.17-3.1-.53-4.6-.43-1.78-1.41-3.38-1.95-5.13-.74-2.43-1.15-4.95-1.77-7.42-.62-2.48-1.61-4.89-1.94-7.43-.26-1.98.05-4 0-6-.06-2.19.08-4.4-.35-6.55-.35-1.72-1.1-3.33-1.77-4.95-.48-1.14-1.14-2.2-1.6-3.36-.71-1.84-1.5-3.7-1.76-5.65-.25-1.82-.03-3.67.18-5.48.1-.9.58-1.76.53-2.66-.09-1.3-.86-2.46-1.24-3.7-.64-2.11-1.06-4.29-1.77-6.37-.45-1.33-1.22-2.54-1.59-3.9-.32-1.14-.27-2.36-.53-3.53-.36-1.62-.94-3.18-1.41-4.77-.3-1-.77-1.97-.89-3.01-.13-1.11.21-2.24.18-3.36-.03-1.07-.02-2.17-.36-3.18-.29-.9-1.02-1.6-1.4-2.48-.39-.85-.58-1.77-.9-2.65a66 66 0 0 0-1.05-2.83c-.4-.95-.77-1.91-1.24-2.82-.32-.62-.74-1.17-1.06-1.77-.46-.86-.38-2.52-1.11-3.15-.8-.69-2.23-.36-3.26-.51-5.77-.24-11.1-.01-17.38-.06-.38.16-.58.6-.88.89-.46.43-.97.8-1.41 1.24-.63.61-1.17 1.3-1.77 1.94-.35.36-.74.68-1.06 1.06-.52.61-1.05 1.23-1.42 1.95-.34.66-1.72 1.08-1.2 1.62z" style="fill:#a55;stroke:#000;stroke-linecap:round;stroke-linejoin:round" transform="translate(0 512.36)"/><path id="p" d="M169.53 548.55c1.55-2.2 4.06-3.36 5.48-5.66" style="fill:none;stroke:#000;stroke-linecap:round;stroke-linejoin:round"/><path id="q" d="M171.62 547.36c.37 4.11 2.24 9.06 6.16 11.05 4.12 1.22 9.53 3.67 9.43 8.72 1.64 4.37 2.25 9.9 6.98 12.12 3.26.96.31 7.15-.98 2.58" style="fill:none;stroke:#000;stroke-linecap:round;stroke-linejoin:round"/><path id="r" d="M174.37 543.99c-.44 4.15 3.16 12.23 6.94 9.01-1.18 4.65 5.76 5.14 6.67 9.5 1.78 3.07 5.03 5.7 4.5 9.58-.48 3.74 2.77 4.94 4.7 7.35 1.22 1.29 3.1 9.03-.31 7.24-.62-1.07-2.43-1.28-1.22-4.28" style="fill:none;stroke:#000;stroke-linecap:round;stroke-linejoin:round"/><path id="s" d="M176.75 543.36c.15 4.95 3.74 9.48 8.3 10.44 1.42 2.26 3.67 4.04 3.2 7.42 3.72.58 6.54 6.02 6.86 10.52.75 3.89 3.95 6.74 6 9.97.98 1.62 2.22 10.47 4.14 4.28" style="fill:none;stroke:#000;stroke-linecap:round;stroke-linejoin:round"/><path id="t" d="M181 543.11c1.67 3.7 1.9 7.28 6.13 6.75-.2 6.07 6.84 11.22 9.39 16.11 2.23 4.28 2.42 9.38 6.23 12.89l.63.62" style="fill:none;stroke:#000;stroke-linecap:round;stroke-linejoin:round"/><path id="u" d="M185.37 542.99c-1.42 5.1 10.99 13.57 8.38 18.25" style="fill:none;stroke:#000;stroke-linecap:round;stroke-linejoin:round"/><path id="v" d="M187.87 543.49c.57 4.93 4.66 8.37 7.05 12.6 1.96 3.44 3.41 5.81 3.83 10.4.05.62.38 1.4-.25 1.88" style="fill:none;stroke:#000;stroke-linecap:round;stroke-linejoin:round"/><path id="w" d="M190.62 543.86c.64 4.34 4.41 7.74 6.78 10.58" style="fill:none;stroke:#000;stroke-linecap:round;stroke-linejoin:round"/><path id="x" d="M198.72 586.71c1.03 4.8-.52 6.33.13 11.22-.52 3.7-3.05 8.26.25 11.28 2.13 4.74 5.96 11.25 5.9 14.4-.37 2.44-2.26 7.84-1.78 10.23" style="fill:none;stroke:#000;stroke-linecap:round;stroke-linejoin:round"/><path id="y" d="M201.52 583.35c-.86 5.36.22 13.12-.17 18.05a13.1 13.1 0 0 0 4.16 14.09c2.44 3.92 4.36 9.15 2.86 13.1-1.58 4.16-3.23 6.52-1.36 10.28" style="fill:none;stroke:#000;stroke-linecap:round;stroke-linejoin:round"/><path id="z" d="M211.52 643.8c.18-2.76.94-5.72-1.47-7.7-1.77-2.92 2.86-6.94 2.23-9.92" style="fill:none;stroke:#000;stroke-linecap:round;stroke-linejoin:round"/><path id="A" d="M213.87 635.24c-.8 4.96.94 9.46 2.25 14.06 3.24 7.2 1.11 5.27 2.33 8.1l1.42 2.59" style="fill:none;stroke:#000;stroke-linecap:round;stroke-linejoin:round"/><path id="B" d="M203.8 588.41c.19 4.7-1.33 11.32.45 15.45 1.84 4.27 2.9 7.7 4.16 11.59.12 2.73 3.69 5.81 3.64 8.45" style="fill:none;stroke:#000;stroke-linecap:round;stroke-linejoin:round"/><path id="C" d="M155.21 604.06c-.24-.15-.52-.23-.7-.44a1 1 0 0 1-.27-.64c-.02-.2-.06-.46.09-.6a2 2 0 0 1 1.15-.53c.29-.03.58.15.84.3.37.2.73.45 1.14.6.68.24 1.37.49 2.08.6.26.04.56.03.8-.09.22-.1.47-.28.53-.53q.19-.96 0-1.94c-.06-.31-.36-.53-.53-.8" style="fill:none;stroke:#000;stroke-linecap:round;stroke-linejoin:round"/><path id="D" d="M157.24 609.62c.42.42.26.42.5.81.3.52.97.46 1.46.68.54.24.84.91 1.44 1 1.06.15 1.29.25 1.82-.02.38-.2.49-.17.93-.1.48.08.62.16.85.47.36.5.28.78-.11 1.27-.29.36-.9.37-1.36.63-.4.23-.6.2-1 .33-.37.11-.76.2-1.1.38-.27.13-.43.41-.62.72-.35.56-1.07.79-1.65 1.13-.5.29-1.1-.12-1.19-.6a3 3 0 0 1 .32-1.73c.2-.44.51-.68 1.03-1.03.22-.16 1.57-.08 1.89-.36-.27-.07-1.94-.32-2.38-.34-.48-.02-.84-.36-1.27-.5-.38-.13-.83-.22-.98-.63-.16-.44-.13-.91-.11-1.37.02-.48.62-.66.94-1 .07-.08.5.17.6.26z" style="fill:#f55;stroke:#000;stroke-linecap:round;stroke-linejoin:round"/><path id="E" d="M239.89 580.37c.81 0 1.74-.35 1.9-1.41.11-.67-.05-2.31.82-2.01.9.3 1.7.53 2.45-.28.63-.7 1.97-.92 2.25-1.75.4-1.13-.5-2.65.36-3.57.6-.66 2.04-.57 2.34-1.37.38-1.03 1.1-1.11 1.9-1.46.84-.35 1.51-1.45 2.41-1.38 1.71.13 3.54-.02 4.93-1.03 1.06-.76.48-1.08-.42-1.72-.85-.6-1.87-.09-2.61-.55a34 34 0 0 1-4.21-3.04c-.64-.55-.64-1.8-1.7-1.76-.79.02-1.93-.46-1.85.8.05.83.68 2.17-.08 2.5-1.63.7-3.94.95-5.3-.18-.93-.76-.27-2.28-.81-3.43-.45-.96-1.83-.35-1.85-1.25 0-.86.19-2.04.98-2.3.82-.28 1.82 0 2.53.63.48.43 1.9.36 1.97-.62.09-1.34-.95-2.27-.7-3.59.2-1.08.5-1.99.53-3.23.02-1.04-1.64-1.43-2.8-1.24-.88.15-1.58-.1-2.33-.7-.78-.64-1.62-1.4-2.59-1.6-.89-.18-1.64.04-1.86 1.03a7 7 0 0 0 .03 3.4c.28 1.11-1.19 1.1-2.06 1.19-1.18.13-1.57.7-2.1-.13-.24-.39.7-1.74-.08-2.98-.89-1.38-3.57.68-2.83-.91.3-.66.97-3.9-.23-3.54h-26.46a47 47 0 0 1 5.87 4.54c4.56 4.01 8.01 7.5 12.37 11.73 3.94 3.82 7.8 8.25 11.58 12.22 2.27 2.37 4.62 4.67 6.46 7.4.4.53.53 1.59 1.2 1.59z" style="fill:#fa5;stroke:#000;stroke-linecap:round;stroke-linejoin:round"/><path id="F" d="M193.22 30.7h9.72l3.54 3.02 9.02 7.77 8.3 8.49 6.73 7.07 7.42 7.6 1.77 3.71 2.12-.7 1.06.88 1.42 2.83 1.06 5.12.7 4.6v2.65l4.42 9.55 5.84 14.14 2.65 6.72 1.77 6.71.88 4.6 2.65 3.54 2.3 4.06 1.24 5.48.7 3.01 2.3 2.83 1.6 2.48 1.05.88 1.77 3.71 2.48 5.66 6.71 12.37 2.48 2.3 1.77 4.95 3.36 5.3 4.06 9.37 1.42 3.01 2.3 1.24 4.24 9.9 3.36 10.43 3.36 6.72a92 92 0 0 0 3.18 6.54c.8 2 1.12 4.19 1.94 6.18.69 1.66 2.05 3.03 2.48 4.78.25 1.03-.67 2.35 0 3.18.53.65 1.84-.03 2.47.53 2.5 2.18 2.39 6.2 3.36 9.37 1.6 5.23 4.07 15.9 4.07 15.9l-47.73.18-.89-1.06.53-2.65 1.42-4.06v-4.6l-2.12-4.6-1.77-3.35-1.77-3.72-.53-3.53v-3.36l-2.65-3.18-3.54-3.72-1.77-3.53-1.94-2.3-1.6-2.12-2.64-2.3-1.95-2.12-1.41-1.6v-2.82l-1.42-1.77-4.06-4.06-.53-2.66-.89-3.35-1.23-3.36-1.6-2.48-2.82-2.47-.7-2.66-1.95-2.65-2.66-2.65-.35-2.3-1.41-3.89-2.12-2.3-1.77-4.24-.89-3.18v-1.59l-2.47-2.47-2.12-2.66-.53-3.7.7-1.6-1.41-3.54-1.77-2.47-1.41-1.6-1.77-1.76-3.54-10.08-1.23-2.47v-2.83l-2.3-6.19-1.24-4.77-2.65-10.61.53-9.72-4.07-11.14-1.76-6.9 1.06-6-1.06-3.72-2.48-7.42-1.41-3.71-1.06-5.48-1.42-4.07-.35-2.12.35-3.89-1.06-3.53-2.65-5.66-1.6-3.36-1.05-2.3z" style="fill:#aaf;stroke:#000;stroke-linecap:round;stroke-linejoin:round" transform="translate(0 512.36)"/><path id="G" d="m263.04 223.57-1.86 9.02-2.38 6.72-5.84 7.6-6.71 8.22-7.7 6.54-4.32 4.07-5.22 3.62 51.35.35-.35-1.5v-3.1l1.23-2.91.45-2.92.08-2.38-2.56-5.92-2.39-4.34-1.06-3.18-.53-4.24-.97-2.48-3.89-4.15-3.27-5.21-2.03-2.3-1.86-1.95z" style="fill:#55a;stroke:#000;stroke-linecap:round;stroke-linejoin:round" transform="translate(0 512.36)"/><path id="H" d="M240.95 700.4c.04 3.3.36 6.67.08 9.93-1.02 2.37-2.38 4.63-3.44 6.92-.11 4.17-2.2 7.94-3.8 11.71-1.11 1.8-1.94 4.34-3.08 6.05a200 200 0 0 0-4.3 4.69 7.6 7.6 0 0 1-3.23 3.8c-.76 1-1.57 3.35-2.21 4.42a30 30 0 0 0-4.25 4.34 19 19 0 0 1-3.17 4.35c-.39 1.25.04 3.5-1.93 2.83-1.66-.51-2.01 1.47-2.75 2.52-.12 1.75-1.58 2.17-3.04 2.58-2.29 2.62-4.2 5.77-7.03 7.8-2.3.8-4.57 1.94-5.76 4.18-1.13.66-2.78.5-4.12.79-1.34.07-2.67.2-4.01.16-.94 1.43-1.32 3.5-3.26 3.84.96.12 2.8.05 4.1.1l42.82.48c2.35-1.64 5.05-2.87 7.18-4.77a46 46 0 0 1 7.5-7.34c3.5-2.98 6.2-6.76 9.16-10.24a73 73 0 0 0 6.62-9.17c1.17-5.29 3.13-10.36 4.19-15.68-2.42-2.33-5.9-4.24-6.37-7.87-.52-2.81-3.67-4.28-4.14-7.16-1.25-3.12-1.72-6.57-3.8-9.31-.77-1.4-1.58-2.78-3.02-3.6-1.02-2.51-2.48-5.03-4.95-6.36z" style="fill:#fff;stroke:#000"/><path id="I" d="M133.97 686.26c-2.66 3.61-5.42 7.16-7.14 11.34-.25 2.55.04 5.21-1.36 7.52-.6 2.2.46 4.6.58 6.9.76 3.2.71 6.45.55 9.72.35 2.92-.01 6.06 1.93 8.5 1.72 2.68 2.7 5.85 4.3 8.51 4.53 2.5 7.52 6.96 12.08 9.43 2.34 1.82 4.48 4.26 7.63 4.6 3.83.59 7.4 2.15 10.76 4.01 3.74 2.73 8.04 5.23 9.98 9.64 1.55 2.36 2.02 5.47 4.66 6.95 1.6.97 3.7 1 5.18 2.05 1.62 1.3 1.71 2.39 4.18 1.7 1.96.07 3.94.2 5.53-1.16 3.15-2.03 5.85-4.74 8.99-6.84 1.86-1.34 2.52-4.4 5.15-4.46 1.79-.84 2.79-2.69 3.1-4.61 1.15-.53 3.23-.65 3.73-2.66.36-1.8.9-3.5 2.46-4.63 2.3-2.14 3.87-4.94 6.48-6.75.01-1.92.3-3.66 2.34-4.33 4.15-4.74 8.61-9.66 10.12-15.96.68-2.72 2.5-5.04 2.5-7.94.13-2.66 2.71-4.41 3.6-6.72-.2-3.3.95-6.76.07-9.95-1.3-1.09-1.05-4.42-2.82-3.63-5.58.99-10.94 3-16.53 3.82-7.57.58-15 2.44-22.63 2.34-7.57.2-15.16-.13-22.73-.3-6.95-1.4-14-2.5-20.85-4.38-4.55-1.47-9.2-2.94-13.43-5.13a80 80 0 0 1-8.41-7.57z" style="fill:#a00;stroke:#000;stroke-linecap:round;stroke-linejoin:round"/><path id="J" d="M134.17 686.61c-2.17 2.62-4.54 5.06-6.04 8.18-.8 1.66-2.14 4.42-2.07 6.3.08 2.18-.5 3.85 1.4 5.14 1.17.8 3.6.36 4.24-1.23-.05 1.48-.13 2.92 1.06 4.06 1.13 1.1 1.9 2.43 3.58 2.85 1.64.4 3.14 1.07 4.81.59 2.54-.74 5.14-1.86 7.13-3.64 1.27-2.38.66 1.18.61 2.17-.1 2.1 1.72 3.63 2.44 5.49.76 1.97 3.12 2.08 4.87 2.75 1.99.75 4.35.7 6.43.22 3.12-.72 5.97-2.7 7.78-5.48.97 2.42 1.28 5.23 3.41 6.97 1.1 1.82 3.14 2.56 5.08 2.93 2.75.52 5.85.06 8.23-1.73 1.53-1.15 3.5-2.09 4.32-3.82-.09-1.84 1.44 1.7 1.8 2.42 1.05 2.1 3.1 3.27 4.97 4.46a8.3 8.3 0 0 0 5.24 1.14c1.79-.13 3.83-.1 5.35-1.01 2.41-1.45 4.19-3.8 5.7-6.12.54-.83 1.05-3.85 1.72-3.2 1.04 1.87 1.46 4.15 3.52 5.3 1.62.9 3.45 1.62 5.25 1.85q2.76.34 5.32-.94c2.65-1.28 5.62-2.34 7.05-5.1.95-1.82 3.23-2.93 3.77-4.81.68-2.37.64-4.84 1.04-7.25.33-1.98-.1-4.24-1.76-5.59-.71-1.56-.85-2.93-2.81-1.84-6.46 1.52-12.9 3.32-19.46 4.28a169 169 0 0 1-28.08 1.95c-5.62-.12-11.3-.1-16.85-1-5.9-.97-11.84-2.07-17.52-3.9-5.65-1.83-11.44-3.74-16.07-7.62-1.85-1.55-4.13-2.7-5.45-4.77z" style="fill:#55a;stroke:#000;stroke-linecap:round;stroke-linejoin:round"/><path d="M233.31 698.6a62 62 0 0 1 6.27-2.25c.24-.92.11-1.79-.9-2.56-1.08-.57-2.94-.53-3.76-.88-.12-.79 1.09-1.98-.69-2.27a7.4 7.4 0 0 0-3.87-.67c-1.07.52-2.38.93-2.39 1.94-.48.8.82 1.66 1.6 2.3 1.68.47.86 1.53-.47 1.55-1.36.16-2.53-.7-3.74-.62-1.66-.12-.93 1.74.34 1.8 2.6.5-.24.14-1.36.06-1.3.65-.11 1.7.42 2.52-2.04-.8-4.94-3.36-7.3-2.94-1.15.8-1.01 3.57-1.33 4.68-1.9-.2-3.83-.24-5.7-.6.33-.85 2.17-3.2.25-3.55-.9-.28-3.9.14-4.07.84-.68.8.08 2.89 1.03 3.5-1.63-.69-3.3-2.67-5.24-2.74-1.6-.17-3.18-.07-4.73.1-1.08.62-.28 3.3.14 3.46-1.14-.67-1.86-1.9-3.6-1.76-1.14-.34-3.55.43-1.4-.36 1.82-.36 1.48-1.08.32-1.93a4.8 4.8 0 0 0-3.55.6c-1.35 1.15-1.25.03-2.51-.3-1.17-.36-3.27.05-2.53 1.04-.4.36-2.06-1.18-3.16-1.19-1.74-.57-2 .46-1.58 1.31 1.78 1.1.76.92-.88.4-2.03-.6-4.33-1.3-6.5-1.1-1.6.72-1.28.52-1.54-.77-.69-.88-2.53-1.3-3.97-1.54-1.36-.24-3.26-.17-3.62.84-.33 1.39-1.27-.7-2.4-.88-1.4-.86-3.4-.7-5.02-1.28-1.6-.6-2.4.7-3.3 1.27.5-.95.53-3.15.06-4.1-1.44-.6-3.75.58-5.36.44.8-.73 2.06-2.71.82-3.51-1.3-1.1-3.43-.66-5.08-.44-.37.17-.3-1.81-1.56-1.92-1.36-.5-3.58 1.37-3.03 1.87-.25-1.22-1.08-3.67-3.1-3.6-.67.18-3.24 2.47-2.59 2.85 3.78 1.5 5.72 2.95 9.19 4.74 2.39 1.34 6.04 3.33 9 4.12 3.91 1.4 7.96 2.68 12.08 3.74 4.71.98 9.45 1.84 14.28 2.4 4.64.69 9.3 1.28 14 1.52 3.9.47 7.7-.2 11.55-.32 3.44-.23 7-.11 10.38-.53 4.45-.78 8.89-1.59 13.08-2.78 2.47-.65 4.75-1.6 7-2.5z" style="fill:#acaaff;stroke:#000;stroke-linecap:round;stroke-linejoin:round"/><path id="K" d="M171 632.61c-3.75 5.28-7.6 10.55-10.25 16.5a132 132 0 0 1-13.26 11.02c-4.62 2.25-9.21 4.84-12.47 8.9-2.8 2.87-5.61 5.8-9.25 7.57-3.26 1.4-4.9 4.7-6.92 7.4-2.76 4.32-5.3 8.83-9.1 12.36-1.34 4.73-2.58 9.58-2.75 14.5 1.07 2.22 2.75 4.4 3 6.87.65.21 2 .21 1.99 2.69 1.26 2.68-.78 5.55-.29 8.23.65 1.94 2.01 3.63 1.55 5.78-.42 1.98.24 3.4 2.14 4.18 1.13 1.33 3.12 1.73 4.09 3.03 1.1 2.21 1.9 4.52 2.27 6.97a5.4 5.4 0 0 0 4.71 3.24c2.31.89 6.07 3.17 8.4 4.13a76 76 0 0 0 7.03 2.27c-.86-1.66-5.2-6.85-4.65-8.92.04-2.35 2.24-1.94 3.4-.47 2.22.96 4.67 1.53 6.9 2.53 3.32.79.49-.79-.88-1.8-4.9-3.2-8.95-7.48-13.93-10.55-1.94-1.2-2.15-3.84-3.33-5.67-2.16-3.62-1.96-7.96-2.55-12.01-.66-6.5-1.85-13.03-1.2-19.56.92-2.73.93-5.94 3.24-7.97 3.73-4.13 6.56-8.95 9.83-13.4 5.83-4.61 11.44-9.52 17.27-14.11 5.03-3.04 10.16-5.9 15.5-8.37 3.02-1.84 6.05-3.66 8.33-6.42.96-1.34.01-3.43.23-5.06-.2-3.64 2.17-7.08 1.1-10.74-.1-1.58-1.04-3.73-2.8-3.86-2.54-1.1-4.82.39-7.36.74z" style="fill:#aaabff;stroke:#000;stroke-linecap:round;stroke-linejoin:round"/><path id="L" d="M139.18 744.14c-.75 1.28-1.52 2.57-2.05 4.09-.54 1.6-.68 2.5-.95 4.23-.14.92-.1 2.8-.22 3.72" style="fill:none;stroke:#000;stroke-linecap:round;stroke-linejoin:round"/><path id="M" d="M100 760.61c.3 1.07-.3 2.46-1.54 2.15-.97-.05-.4.4-1.57 1.07-.12 1.01.2 2.14-1.16 2.53-2.41 1.74-5.17 2.93-7.91 4.02q-3.03.37-6.07-.02c-.37-1.52-1.53-1.17-2.7-.76-1.52-.48-3.11-.92-4.15-2.22a15 15 0 0 1-3.43-4.2c-.3-1.79-1.01-3.57-.42-5.37.44-2.92 1.6-5.65 2.49-8.44-1-1.16-1.92-2.58-3.19-3.37-1.57-.03-3.12-.13-4.5-.96-2.38-1.31-3.93-3.75-5.79-5.7-.86-.74-1.08-1.89-1.55-2.88-2.57.47-5.25 1.08-7.8.21-1.2-.6-2.53-1.17-3.05-2.51-.28-1.02-.2-2.22.65-2.98 1.19-2.13 4.1-1.77 6.21-2.24-1.88-.37-3.68-2-5.55-2.38-.69-.86-1.57-1.66-1.24-2.87-.1-.94.61-2.43 1.61-2.43 2.16-.1 4.37-.54 6.51-.45 1.9.98.63.28-.51-.35-1.65-.79-3.61-2.3-3.12-4.37-.07-1.2.02-2.31 1.42-2.56a5.3 5.3 0 0 1 4.64.27c.97 1.7.47-.82.59-1.57.92-1.32-.95-.9-1.66-1.71-1.06-.74-2.35-1.4-3.15-2.34-.29-1.28-.53-2.8-.17-4 1.02-.56 1.75-1.65 2.69-2.19 2 .07 4.48-.48 5.82 1.42 1.06.78 2.1 1.59 2.66 2.82.4.67.95 1.22 1.4 1.62.18-.5.4-1.5.8-1.66.01-2.53-.91-5.4-.9-7.9.16-1.08 1.97-1.31 2.64-.63 1.16 1.38 1.43 3.3 2.42 4.76 1.06 1.78 2.97 2.64 4.88 3.26 1.36.92 2.84 1.76 3.56 3.32 1.03 1.42 2.04 2.93 3.21 4.21 1.57.9 3.4 1.43 4.89 2.37 1.14 1.64 2.21 3.31 2.66 5.29a56 56 0 0 0 2.02 5.7c-.35 1.4.7 2.38 1.3 3.53.6 1.81 1.58 3.54 1.4 5.51a66 66 0 0 1-.3 12.03c-.29 2.29.74 4.48 1.25 6.67.6 1.7 1.23 3.39 1.65 5.14z" style="fill:#faa;stroke:#000;stroke-linecap:round;stroke-linejoin:round"/><path id="N" d="M68.24 697.92v1.43c.34 1.06.62 2.14 1.06 3.17.15.31.23.68.44.96.34.33.66.7 1.03 1l1 .51.9-.35.17-.53" style="fill:none;stroke:#000;stroke-linecap:round;stroke-linejoin:round"/><path id="O" d="M66.29 707.65c1.13 1.55 2.29 3.05 3.18 4.77.6 1.14 1.38 2.47.65 3.72-.8 1.41-2.66 1.1-3.94.84s-2.13-1.46-3.25-2.26c-1.3-.93-2.37-2.6-3.78-3.3" style="fill:none;stroke:#000;stroke-linecap:round;stroke-linejoin:round"/><path id="P" d="M58.87 714.37a15 15 0 0 0 4.48 3.25c1.49.62 2.48 1.96 4.05 2.54a14 14 0 0 1 5.08 3.23c1.05 1.03 1.94 2.54 1.77 4.06-.2 1.72-2.2.97-3.36 1.08a6.7 6.7 0 0 1-4.05-.75c-1.39-.81-2.32-2.25-3.92-2.7-1.15-.33-1.66-1.05-2.65-1.77-.72-.51-2.87-1.34-3.7-2.13" style="fill:none;stroke:#000;stroke-linecap:round;stroke-linejoin:round"/><path id="Q" d="M64.52 726.39c.56 1.17 2.15 1.84 2.1 3.2-.05 1.86-2.8 1.37-4.11 1.1-1.8-.38-3.6-.86-5.41-1.15a16 16 0 0 1-3.36-.85" style="fill:none;stroke:#000;stroke-linecap:round;stroke-linejoin:round"/><path id="R" d="M58.89 729.93c1.36.46 4.75 2.47 4.93 4.06.15 1.37-1.84 1.44-2.97 1.78-1.2.37-1.58.47-2.51.7" style="fill:none;stroke:#000;stroke-linecap:round;stroke-linejoin:round"/><path id="S" d="M66.76 716.86c-.5-.8-1.54-1.21-1.85-2.11 0-.74 1.43-2.84 2.24-2.54.9.32 1.93.31 2.57 1.3" style="fill:none;stroke:#000;stroke-linecap:round;stroke-linejoin:round"/><path id="T" d="M72.7 724.09c-.91-.26-2.67-1.18-3.6-.9-1.06.67-1.4 3.19-.37 3.74.72.63 2.18 1.09 3.04 1.48" style="fill:none;stroke:#000;stroke-linecap:round;stroke-linejoin:round"/><path id="U" d="M64.88 727.18a8 8 0 0 0-2.83-.26c-1.46.86-.63 2.43-.05 3.05.26.32 2.17 1.18 2.66 1.03" style="fill:none;stroke:#000;stroke-linecap:round;stroke-linejoin:round"/><path id="V" d="M61.65 731.55c-1.24.1-3.04.28-3.78 1.26-.34 1.05 1.04 2.75 2.04 2.41h2.13" style="fill:none;stroke:#000;stroke-linecap:round;stroke-linejoin:round"/><path id="W" d="M67.31 705.67c.6 1.29.95 2.74 1.86 3.84.45.55 1.07.95 1.68 1.15.63.2.45 1.15.68 1.58.43.78.58 1.71 1.05 2.47.35.55.75 1.11 1.38 1.4.7.3 1.13 1.03 1.84 1.28q.93.31 1.88.53" style="fill:none;stroke:#000;stroke-linecap:round;stroke-linejoin:round"/><path id="X" d="M123.92 648.07c-.56-.14-1.35.11-1.28-.8a4.3 4.3 0 0 0-.56-2.68c-.65-1.03-.74-2.48-1.7-3.24-1.27-1-3.05-1.04-4.65-1.42a2.8 2.8 0 0 0-2.21.53c-.82.68-.66.74-.42 1.35.15.39.95 1.51.54 1.45-1.35-.19-2.76-.76-4.04-.32-1.16.4-1.72 1.8-2.74 2.47-.73.49-1.43 1.1-2.4 1.07-1-.03-2.2-1.28-2.82-.53-.73.9.07 2.42.62 3.45.56 1.04 1.87 1.56 3.17 1.47.55-.04 1.77-.65 1.43-.54-1.07.36-2.02.86-3.1 1.1-.55.12-1.29-.6-1.66-.37-.4.25.68.99.95 1.45a3 3 0 0 0 1.75 1.3c.55.19 1.29.25 1.8 0 1.11-.54 2.38-.63 3.44-1.23.91-.52 1.54-1.44 2.54-1.71.5-.14 1.3.02 1.61.53a5 5 0 0 0 1.69 1.53c.37.23 1.84-.33.91-.5-.7-.13-1.29-.11-2-.23-.77-.13-.9-1.34-1.56-1.21a7 7 0 0 0-3.6 1.9c-.56.54-1.5.45-1.8 1.3-.38 1.13-.87 2.19-.75 3.42.1 1.1.1 2.4-.39 3.34-.3.6-2.08.78-1.6 1.26.9.9 2.3.94 3.55 1.08 1 .1 1.95-1 1.65-.15-.2.57-1.45 2-.95 2.34.94.66 2.26-.57 3.34-.57.82 0 .85-1.63 1.12-.9.62 1.71-1.6 5.5-.13 6.6 1.37 1.03 2.77-1.93 4.6-1.94 1.13 0 2.22.35 3.35.35.82 0 1.73-.2 2.37-.7.67-.5 1.4-.87 1.86-1.52.94-1.32 1.63-3.6.56-5.42-.95-1.63-.38-1.62-1.53-2.78-.62-.63-1.72-1.28-1.67-1.04.12.52 1.08.57 1.42 1.03.9 1.2 1.75 2.54 2.13 4 .53 1.97.2 4.07 1.37 5.87.65 1 .48 2.23.98 3.34.34.75.86-.2 1.2-.48.8-.7 1.84-1.28 2.3-2.22.58-1.2 1.03-2.49 1.22-3.8.2-1.34.25-2.77-.03-4.1-.15-.7-.82-1.28-1.3-1.81-.45-.48-3.1-2.24-2.57-1.86 1.14.83 4.08 2.18 4.71 3.53a2.4 2.4 0 0 0 2.04 1.3c.93.08 1.97-.23 2.8.17 1.01.48.48-.51.37-1.03-.18-.86-1.1-1.43-1.17-2.4-.04-.74-.82-1.63-1.3-2.15-.88-.93-2.01-1.45-3.01-2.23-.59-.46-.99-.78-1.78-.88-.77-.1-1.48-.42-2.22-.37-1.27.08-1.66.87-2.91 1.23-.64.19-.46-1.26-.36-1.97.13-.9-.23-1.7-.44-2.56-.17-.73-1.02-.55-1.29-1.04-.35-.65-.62-.93-1.3-1-.54-.04-.06-.02-.1-.03q-.02-.03-.05-.03" style="fill:#ff5655;stroke:#000;stroke-linecap:round;stroke-linejoin:round"/><path id="Y" d="M114.99 643.48c.61.33 1.36.23 1.97.53.38.35.38.92.47 1.4.1.82-.04 1.65 0 2.47.13.49.15 1.05.53 1.42.81 1.2 1.07.15 1.88 1.25" style="fill:none;stroke:#000;stroke-linecap:round;stroke-linejoin:round"/><path id="Z" d="M118.44 654.17c-.26.38-.97.72-.8 1.15a6.7 6.7 0 0 0 2.44 2.78c.26.19.65-.42 1-.55.43-.17.43-.47.47-.88.06-.5.4-.94.43-1.44" style="fill:none;stroke:#000;stroke-linecap:round;stroke-linejoin:round"/><path id="aa" d="M130.02 664.34c.05.57-.1 1.16.25 1.67.32.5.88.77 1 1.41.34 1.92-.31 2.52-.28 3.1" style="fill:none;stroke:#000;stroke-linecap:round;stroke-linejoin:round"/><g transform="matrix(1.0893 .35644 -.57018 .81646 363.99 77.73)"><use xlink:href="#b" width="360" height="540" style="stroke-width:.95700002"/><path d="M126.3 127.98a.93 1.64 0 1 1-1.85 0 .93 1.64 0 1 1 1.86 0z" style="fill:#ff5;stroke:#000;stroke-width:.66600001" transform="matrix(1.64286 0 0 1.25676 -81.06 478.86)"/></g><g transform="matrix(-.58347 -.77797 -.94398 .71706 809.34 276.33)"><use xlink:href="#b" width="360" height="540" style="stroke-width:.93099999"/><use xlink:href="#c" width="360" height="540" style="stroke-width:.648" transform="matrix(1.64286 0 0 1.25676 -81.06 478.86)"/></g><use xlink:href="#b" width="360" height="540"/><use xlink:href="#c" width="360" height="540" style="stroke-width:.69599998" transform="matrix(1.64286 0 0 1.25676 -81.06 478.86)"/><path id="ac" d="m51.62 225.07-3.01 3.27-1.95 2.65-2.03 3.01-.8 2.83v3.18l-.08 2.48.09 3.53v1.33l1.76-1.42 1.42-.7 1.15-.36.26-1.32-.53-2.74.27-4.07.8-2.2.88-2.57 1.5-2.12 1.68-2.3 1.68-1.86 1.23-.97-2.03.36z" style="fill:#5a5;stroke:#000;stroke-linecap:round;stroke-linejoin:round" transform="translate(0 512.36)"/><path id="ad" d="m101.38 164.53-2.56 3.36-3.36 3.8-3.98 4.77-4.5 3.8-4.34 4.33-2.83 2.4-2.65 2.55-2.38 2.21-.71.71 2.39.88 3.35-3.44 6.63-6.1 4.78-3.98 3.97-4.15 2.57-3.18 2.82-2.92 2.13-2.48 1.14-1.32.71-.44-1.59.26-1.06-.26z" style="fill:#5a5;stroke:#000;stroke-linecap:round;stroke-linejoin:round" transform="translate(0 512.36)"/><path id="ae" d="M101.47 676.89c-.06-.72-.15-1.44-.16-2.16q.18-.64.58-1.17c.2-.24.3-.6.64-.66q.61-.2 1.1-.6c.64-.4 1.06-1.03 1.59-1.53.29-.22.7-.32.82-.7.5-.88.89-1.8 1.26-2.73.2-.56.46-1.1.63-1.67.05-.68.14-1.36.17-2.04q.57.14 1.14.02l.72-.1v1.76a30 30 0 0 1 3.7-.97c0 1.5.03 2.98-.01 4.48l-.07 1.09c-.52.23-1.07.4-1.57.67-.91.78-1.88 1.5-2.75 2.34-.65.76-1.33 1.5-1.93 2.3-.25.4-.43.86-.74 1.22-.3.27-.6.58-.92.82-.51.14-1.03.3-1.57.3a6 6 0 0 1-1.69-.08c-.26-.1-.6-.05-.74-.34z" style="fill:#5a5;stroke:#000;stroke-linecap:round;stroke-linejoin:round"/><path id="af" d="M56.39 680.51c.18-.78.26-1.6.5-2.36.87-1.05 1.57-2.28 2.7-3.1q1.34-1.18 2.92-2c.88-.36 1.74-.46 2.62-.76.96.06 1.97 0 2.9.13.9.73 1.98.92 2.61 1.91a25 25 0 0 0 2.88 3.25 10 10 0 0 1 1.53 2.03c.16.66.17 1.4.4 2 .35.32.86.55 1.1.92v3.28c.39.47.93.9 1.23 1.4.04 1.08-.08 2.18.06 3.25.25.84.47 1.68.38 2.56-.1 1.47-.12 2.95-.34 4.41-.22 1.19-.73 2.3-.78 3.52-.04.51-.1 1.01-.53 1.33-.28.27-.74.92-.9.95.26-1.25.2-2.54.08-3.8-.5-.31-.9-.86-1.53-.75-.57.07-.95-.12-1.05-.71-.35-.91-.35-1.93-.5-2.9-.04-.58-.06-1.19-.48-1.65-.16-.52-.6-.66-1.1-.73-.56 0-.84-.37-1.03-.86-.26-.4-.14-.95-.12-1.4a35 35 0 0 0 1.39-3.64c-.02-.77.04-1.59-.03-2.33-.57-1.6-.53-3.39-1.09-4.99-.9-.97-1.75-2.04-2.73-2.93-.44-.31-.9-.56-1.46-.54-.79-.06-1.59-.3-2.36 0-.88.23-1.8.38-2.65.67-.97.82-2.05 1.58-2.58 2.78-.3.62-.67.92-1.25 1.32-.38.3-1.05 1.7-.93.86-.01-.17.15-.96.14-1.13z" style="fill:#5a5;stroke:#000;stroke-linecap:round;stroke-linejoin:round"/><path id="ag" d="M80.79 698.28c-.46-1.78-1.03-3.54-1.1-5.39-.41-3.96-.3-7.96-.31-11.94-.54-1.27-1.18-2.5-1.42-3.88.52-.22 1.74.2 1.6-.61-.13-1.51.24-3 .35-4.49-.06-1.24 0-2.46.36-3.66.11-1.23 1.17-2.1 1.58-3.2.03-1.32-.09-2.65.18-3.95.35.24.82 1.74 1.06.84.55-1.43 1.5-2.74 1.6-4.3.05-.7.15-1.35.77-1.75.88-.91 1.87-1.79 2.53-2.87.62-1.43 1.37-2.8 1.82-4.3.37-.55.85-1.55.8-.31.08 1.27.4 2.54.4 3.81l-.5 3.57c.45-.9.74-1.89 1.42-2.65-.13 1.27 0 2.6-.3 3.84-.77 1.69-.54 3.6-.59 5.42-.3 1.52-.66 3.05-.7 4.62-.04 1.83.2 3.76-.68 5.45-.45 1.06-.7 2.28-1.67 3-.38.35-.95 1.2-.74 1.49.52-.19 1.31-.8 1.67-.73-.08 1 .26 2.1-.38 2.96-.75 1.6-2 2.9-2.55 4.6-.54 1.5-1.62 2.76-2.24 4.2-.35 1.69-.95 3.33-.84 5.08a5 5 0 0 1-.64 3.07c-.34.79-1 1.38-1.48 2.08" style="fill:#5a5;stroke:#000;stroke-linecap:round;stroke-linejoin:round"/><path id="ah" d="m86.97 147.73-.7 5.66-.89 3.89-1.06 3.18-2.3 5.83-1.06 4.42v10.43l.36 3.89" style="fill:none;stroke:#000;stroke-linecap:round;stroke-linejoin:round" transform="translate(0 512.36)"/><path id="ai" d="M67.53 676.18c1.8 1.62 4.26 2.8 5.3 4.98.76 1.62.1 3.58.36 5.35.38 2.57 1.45 5.02 1.76 7.6.13 1.06-.23 2.16.05 3.18.3 1.12 1.42 1.9 1.72 3.02.1.37 0 .77 0 1.15" style="fill:none;stroke:#000;stroke-linecap:round;stroke-linejoin:round"/><g transform="matrix(-.05953 -.97064 -1.18275 .07983 903.75 719.55)"><use xlink:href="#b" width="360" height="540" style="stroke-width:.93099999"/><use xlink:href="#c" width="360" height="540" style="stroke-width:.648" transform="matrix(1.64286 0 0 1.25676 -81.06 478.86)"/></g><path id="aj" d="M106.25 707.61c-.37 1.48-.34 3.14-.96 4.52-.84 1.13-1.64 2.3-3 2.85-2.12 1.05-3.05 3.37-4.04 5.38 0 1.2.19 2.45-.6 3.46-.9 1.8-1.7 3.73-3.42 4.89-1.3.58-.16 1.75.07 2.7.62 1.43 1.17 2.88 1.1 4.47.4 3.46.04 6.94.07 10.4-.26 1.44-.86 2.88-.3 4.32.46 2.85 1.7 5.49 2.45 8.26a4.4 4.4 0 0 0 2.13 2c.4 1.04.55 2.3 1.15 3.2 1.6.68 2.1 2.56 3 3.93a14 14 0 0 1 1.57 4.46c0 1.49-.62 2.96-1.23 4.26-.8.66 1.05 1.58 1.16 2.44.33.8-.23 2.7 1.03 2.46l18.2.12c-.53-.98-1.86-2.09-1.23-3.2.78-.54 1.93-1.07 2.6-1.34.28-1.09-.66-1.68-.32-2.76a4.3 4.3 0 0 0-.64-3.1c-.02-1-.36-2.22.68-2.81 1.02-.79.55-2.29.53-3.41-.68-1.26-1.27-2.66-2.5-3.5-.08-1.03.16-2.17-.11-3.13-.7-1.13-1.92-1.51-3.02-2.1-1.34-1.2-3.21-2.36-3.37-4.28-.27-1.09 1.21-1.44 2.04-1.58 1.28-.1 2.64-.57 3.83.09a26 26 0 0 1-2-5.75 10.6 10.6 0 0 0-3.89-4.71c-1.11-.96-2.43-1.78-3.42-2.82-.3-1.02-1.16-2.01-.52-3.07.22-1.25.18-2.57-.64-3.61-.57-1.2-1.72-2.45-.96-3.8.4-1.53.84-3.1 1.01-4.65-.4-1.46-.66-3.14-1.86-4.14-.92-.28-1.77-1.3-1.6-2.3.37-1.8-1.6-2.77-2.21-4.23-.48-2.07.14-4.21.34-6.3z" style="fill:#5556aa;stroke:#000;stroke-linecap:round;stroke-linejoin:round"/><use xlink:href="#a" width="360" height="540" transform="translate(-.63 512.36)"/><use xlink:href="#a" width="360" height="540" transform="translate(3.81 515.61)"/><use xlink:href="#a" width="360" height="540" transform="translate(9.19 517.36)"/><use xlink:href="#a" width="360" height="540" transform="translate(14.81 517.24)"/><use xlink:href="#a" width="360" height="540" transform="translate(20.31 516.61)"/><use xlink:href="#a" width="360" height="540" transform="translate(25.81 514.99)"/><use xlink:href="#a" width="360" height="540" transform="translate(30.69 513.11)"/><use xlink:href="#a" width="360" height="540" transform="translate(-16.31 526.11)"/><use xlink:href="#a" width="360" height="540" transform="translate(21.19 534.99)"/><use xlink:href="#a" width="360" height="540" transform="translate(31.19 532.11)"/><use xlink:href="#a" width="360" height="540" transform="translate(36.69 530.49)"/><use xlink:href="#a" width="360" height="540" transform="translate(41.81 528.49)"/><use xlink:href="#a" width="360" height="540" transform="translate(46.81 526.36)"/><path id="ak" d="M161.75 674.74c-2.01 1.06-3.39 3-4 5.5a17.4 17.4 0 0 0 0 7.63c.38 1.78 1.33 3.5 2.58 4.81 2.18 2.3 4.61 4.5 7.4 5.96a15 15 0 0 0 6.38 1.71c2.21.08 4.48-.29 6.59-.94 2.24-.7 4.55-1.45 6.5-2.74a20 20 0 0 0 5.22-4.65 16 16 0 0 0 2.48-6.24c.28-1.43.38-2.88.73-4.29l4-1.62c-1.38-1.75-2.88-2.94-4.25-4.7-1.85.83-.73.39-2.64 1.03-1.07.36-2.41 1.14-3.49 1.48-.04-.94-.84-1.83-1.25-2.65a6 6 0 0 0-2.7-2.45 41 41 0 0 0-5.31-1.82 8 8 0 0 0-2.5-.35c-1.38.06-2.79 0-4.05.54-1.28.53-1.6.62-2.48 1.69-.52.63-1.21 1.47-1.74 1.05-.91-.48-.68-.74-1.34-1.54-.42-.5-1.8-2.52-2.5-2.12-1.37.36-3.37 1.85-4.75 2.21.2.38.21.23.37.63z" style="fill:#fa5;stroke:#000;stroke-linecap:round;stroke-linejoin:round"/><use xlink:href="#a" width="360" height="540" transform="translate(26.56 533.74)"/><use xlink:href="#a" width="360" height="540" transform="translate(-14.69 534.49)"/><use xlink:href="#a" width="360" height="540" transform="translate(-16.06 543.61)"/><use xlink:href="#a" width="360" height="540" transform="translate(2.25 550.04)"/><use xlink:href="#a" width="360" height="540" transform="translate(10.24 540.12)"/><path id="al" d="M199.75 679.99c.08 1.08.42 2.17.5 3.25-.87.33-2.37 1.17-3.25 1.5-.2 1.68.07 2.87-.5 4.48-.37 1.04-.52 2.16-1.24 3.06-.74.94-1.15 2.17-2.04 2.96a27 27 0 0 1-4.62 3.5c-1.82 1.02-3.7 2-5.67 2.69-1.3.45-2.59 1.07-3.95 1.22-1.47.16-2.97.48-4.43.3q-3.45-.42-6.78-1.48a6 6 0 0 1-2.18-1.15c-1.24-1.1-3.1-2.04-4.14-3.3a24 24 0 0 1-3.95-6.78c-.43-1.05-.25-3.75-.38-4.88.73 1.38 1.2 4.43 2.14 5.65 1.08 1.4 2.24 3.41 3.6 4.53a26 26 0 0 0 5.23 3.23c1.69.84 3.53 1.48 5.38 1.72 1.48.19 3.04.18 4.47-.19a36 36 0 0 0 7.37-2.67c1.08-.56 2.35-.83 3.29-1.6 1.2-.97 2.55-1.87 3.45-3.13a17 17 0 0 0 2.28-4.45c.45-1.34.93-2.7 1.06-4.11.08-.95.7-2.28.73-3.23 1.42-.5 2.21-.62 3.63-1.12" style="fill:#a50;stroke:#000;stroke-linecap:round;stroke-linejoin:round"/><path id="am" d="m196.25 168.81.69 3.81" style="fill:none;stroke:#000" transform="translate(0 512.36)"/><path id="an" d="M178.06 676.85s-1.03 1.06-1.62 1.47c-.62.44-1.3.75-1.97 1.04-.68.3-1.4.45-2.09.69-.8.27-1.67.38-2.42.86-.83.53-1.77 1.2-2.15 2.17-.3.77-.2 1.72.08 2.44a3.4 3.4 0 0 0 1.85 1.93c.91.33 2.05.14 2.99-.33.7-.35 1.72-1.74 1.72-1.74l-.2.52c-.1.26-.69 1.8-1.26 2.53a7 7 0 0 1-1.94 1.64c-.76.45-2.42.86-2.42.86l-.1.26s1.96.27 2.9.54q.7.21 1.36.54c.87.44 2.5 1.58 2.5 1.58l.1-.26s-.93-1.44-1.19-2.28a7 7 0 0 1-.3-2.53c.08-.92.7-2.44.8-2.7l.2-.52s-.19 1.71.08 2.44c.37.99 1.07 1.9 1.97 2.28.8.34 1.82.24 2.67-.16.7-.33 1.41-.96 1.72-1.73.38-.98.14-2.1-.1-3.06-.22-.86-.79-1.52-1.2-2.27-.34-.65-.75-1.25-1.06-1.93-.3-.67-.58-1.36-.73-2.1-.15-.7-.19-2.18-.19-2.18"/><path id="ao" d="M87.15 692.98c.89-1.44 1.81-2.86 2.67-4.3.96-2.9 1.94-5.8 3.02-8.66.59-.94 1.29-1.81 1.8-2.79.62-1.66 1.19-3.35 2-4.94.27-.8 1.04-1.24 1.57-1.86.4-.8.58-1.74.93-2.58q.31-1.02.91-1.92l.36-2.3c.16 1.29.4 2.57.52 3.85-.1.76-.06 1.55-.22 2.29l-1.93 4.53c-1.28 1.8-2.66 3.56-3.61 5.56a31 31 0 0 0-2.17 4.63c-.3.74-.51 1.53-1.06 2.13-.45.64-1.01 1.21-1.16 2a4 4 0 0 1-.87 1.64c-.44.62-.85 1.26-1.5 1.68z" style="fill:#5a5;stroke:#000;stroke-linecap:round;stroke-linejoin:round"/><path id="ap" d="M82.55 698.99c1.12-.75 2.16-1.61 3.33-2.28a95 95 0 0 1 6.53-3.06q3.56-1.06 7.11-2.08c1.32.58 2.98.17 4.31.7.88.1 1.44 1.13 2.29 1.29.64.56 1.38 1.05 1.96 1.66.44.7.93 1.36 1.08 2.19.43 1.18.64 2.42.79 3.67-.02 1.74.04 3.5-.03 5.22-.33.78-.75 1.53-1.03 2.3v2.06c-.34-1.68-.58-3.38-.98-5.04l-.79-2.38c-.6-.35-1.14-.88-1.8-1.1q-2.71-.46-5.24-1.52a45 45 0 0 1-3.04-1.27c.38.8.65 1.68 1.3 2.32l.83 1.04c-.39.2-.77.5-1.18.17-1.02-.45-2.14-.71-3-1.46-.66-.54-1.56-.6-2.33-.9-1.46-.5-3.02-.58-4.52-.9-.79-.2-1.58.16-2.37.22-.64.11-1.15.73-1.85.57-.6-.03-1.2-.02-1.76.25-.34.09-1.2.49-.53 0 .55-.5-2.22 1.76-1.68 1.26-.24-.06 2.84-2.87 2.6-2.92z" style="fill:#5a5;stroke:#000;stroke-linecap:round;stroke-linejoin:round"/><path id="aq" d="m84.32 699.34 7.12-2.48c1.32-.23 2.63-.5 3.95-.7q3.09-.02 6.18.01c.86.14 1.75.2 2.6.38.7.61 1.46 1.17 2.13 1.82.4.61.9 1.18 1.24 1.83.27.73.59 1.46.82 2.2v2.24" style="fill:none;stroke:#000;stroke-linecap:round;stroke-linejoin:round"/><path id="ar" d="M201.88 549.26c5.7 7.08 12.52 14.36 13.34 23.78.4 4.55.15 9.02 2.24 13.37l.33.68" style="fill:none;stroke:#000;stroke-linecap:round;stroke-linejoin:round"/><path id="as" d="M223.45 569.76c3.92 7.26 8.07 14.71 8.53 23.18.52 9.52 5.36 18.04 7.44 27.24.5 2.18 1.15 4.33 1.7 6.5" style="fill:none;stroke:#000;stroke-linecap:round;stroke-linejoin:round"/><path id="at" d="M230.87 60.94s8.41 19.1 11.67 28.99c3.53 10.75 5.3 22.02 8.48 32.88 3.18 10.83 7.65 21.27 10.6 32.17 1.78 6.51 4.25 19.8 4.25 19.8" style="fill:none;stroke:#000;stroke-linecap:round;stroke-linejoin:round" transform="translate(0 512.36)"/><path id="au" d="M239.71 72.96s6.3 20.29 9.55 30.4c3.69 11.46 7.92 22.75 11.31 34.3 3.19 10.85 5.74 21.89 8.49 32.87 1.7 6.82 4.95 20.5 4.95 20.5" style="fill:none;stroke:#000;stroke-linecap:round;stroke-linejoin:round" transform="translate(0 512.36)"/><path id="av" d="M248.55 92.4s4.68 16.12 7.43 24.04c1.6 4.65 2.91 9.48 5.3 13.79.85 1.55 2.4 2.66 3.18 4.24 1.9 3.84 1.92 8.4 3.54 12.38 1.21 2.97 3.27 5.55 4.6 8.48 5.9 13.05 10.12 26.79 14.84 40.31 5.7 16.29 16.26 49.14 16.26 49.14" style="fill:none;stroke:#000;stroke-linecap:round;stroke-linejoin:round" transform="translate(0 512.36)"/><path id="aw" d="M285.32 176.9s8.88 23.34 14.14 34.65c4.38 9.41 10.46 18 14.5 27.57 1.92 4.57 3.11 9.42 4.6 14.14.73 2.35 2.11 7.07 2.11 7.07" style="fill:none;stroke:#000;stroke-linecap:round;stroke-linejoin:round" transform="translate(0 512.36)"/><path id="ax" d="M134.7 704.29c.5 4.7 6.05 4.42 9.44 3.33 1.57-.55 2.82-1.67 4-2.8" style="fill:none;stroke:#000;stroke-linecap:round;stroke-linejoin:round"/><path id="aO" d="M152.03 707.29c-.5 3.78 3.27 9.03 7.36 7.63 2.24-.78 5.13-2.15 6.78-3.92" style="fill:none;stroke:#000;stroke-linecap:round;stroke-linejoin:round"/><path id="aP" d="M172.71 711.54c1.52 4.28 5.36 9.08 10.43 6.72 2.6-.8 4.58-2.66 6.19-4.78" style="fill:none;stroke:#000;stroke-linecap:round;stroke-linejoin:round"/><path id="aQ" d="M195.52 714.9c-.21 4.15 3.35 8.08 7.6 7.53 4.57-.63 9.53-3.98 9.9-8.94" style="fill:none;stroke:#000;stroke-linecap:round;stroke-linejoin:round"/><path id="aR" d="M219.91 713.3c1.75 4.48 7.23 5.8 11.31 3.89 2.62-1.82 5.4-3.92 5.48-7.25" style="fill:none;stroke:#000;stroke-linecap:round;stroke-linejoin:round"/><path id="aS" d="M130.81 700.05c-.2 2.1-2.07 3.6-4.07 2.48" style="fill:none;stroke:#000;stroke-linecap:round;stroke-linejoin:round"/><path id="aT" d="M227.69 727.09q-.9 7.01-2.59 13.88-.22.93-.41 1.85" style="fill:none;stroke:#000;stroke-linecap:round;stroke-linejoin:round"/><path id="aU" d="M223.8 729.92c-.54 4.47-1.04 8.93-.88 13.44" style="fill:none;stroke:#000;stroke-linecap:round;stroke-linejoin:round"/><path id="aV" d="M208.07 729.21c4.96-.06 8.52-.61 12.55-1.77" style="fill:none;stroke:#000;stroke-linecap:round;stroke-linejoin:round"/><path id="aW" d="M202.59 731.69c3.07.23 6.17 1.13 9.22.8 2.8-.28 5.63-.77 8.1-2.21" style="fill:none;stroke:#000;stroke-linecap:round;stroke-linejoin:round"/><path id="aX" d="M199.05 735.93c4.66-.28 9.37-.05 13.99-.62 2.34-.29 4.58-1.12 6.87-1.68" style="fill:none;stroke:#000;stroke-linecap:round;stroke-linejoin:round"/><path id="aY" d="M196.75 739.29c2.54.23 5.12 1.17 7.63.8 5.37-.79 10.63-2.24 15.88-3.63" style="fill:none;stroke:#000;stroke-linecap:round;stroke-linejoin:round"/><path id="aZ" d="M180.31 742.3c4.68.35 9.35.86 14.06.6 4.74-.25 9.58.57 14.25-.17 4.16-.66 8.2-2.04 12.17-3.44" style="fill:none;stroke:#000;stroke-linecap:round;stroke-linejoin:round"/><path id="ba" d="M152.74 741.41c3.78 0 7.63-.73 11.34-.08 6.54 1.14 12.85 3.59 19.45 4.34 6.01.7 12.07.91 18.12.52 2.86-.18 5.72-.06 8.51-.87 3.7-1.07 7.37-2.1 10.99-3.38" style="fill:none;stroke:#000;stroke-linecap:round;stroke-linejoin:round"/><path id="bb" d="M144.43 743.89q6.68.09 13.36.75c3.95.4 7.66 1.82 11.5 2.67 4.67 1.03 9.32 2.35 14.07 2.78 6.46.6 12.96.74 19.44.34 2.22-.14 4.63.44 6.69-.34 3.68-1.38 7.22-3.03 10.96-4.26" style="fill:none;stroke:#000;stroke-linecap:round;stroke-linejoin:round"/><path id="bc" d="M148.14 746.89c4.1.5 8.24.69 12.24 1.84a129 129 0 0 0 16.86 3.64c4.28.64 8.57 1.44 12.9 1.61 5.03.2 10.05.18 15.07-.2 1.62-.13 3.15-.29 4.62-1.06 2.21-1.16 4.58-1.93 6.54-3.53" style="fill:none;stroke:#000;stroke-linecap:round;stroke-linejoin:round"/><path id="bd" d="M162.1 753.43c5.36 1.43 10.63 3.45 16.14 4.1 8.43 1.02 16.92 1.86 25.4 1.73 2.56-.04 4.77-1.86 7.25-2.47" style="fill:none;stroke:#000;stroke-linecap:round;stroke-linejoin:round"/><path id="be" d="M172.36 759.27c4.49 1.04 8.9 2.63 13.49 3.03 5.74.5 11.58.48 17.29-.3 1.2-.16 2.34-.64 3.52-.96" style="fill:none;stroke:#000;stroke-linecap:round;stroke-linejoin:round"/><path id="bf" d="M177.31 763.51c3.7.69 7.2 2.3 10.96 2.65 4.88.46 9.77-.78 14.67-.88" style="fill:none;stroke:#000;stroke-linecap:round;stroke-linejoin:round"/><path id="bg" d="M181.02 766.34c2.9.92 5.69 2.38 8.68 2.83 3.1.46 6.25-.03 9.35-.53" style="fill:none;stroke:#000;stroke-linecap:round;stroke-linejoin:round"/><path id="bh" d="M179.25 769.34c3.54.77 7.06 1.95 10.68 2.12 1.82.09 3.61 0 5.4.35" style="fill:none;stroke:#000;stroke-linecap:round;stroke-linejoin:round"/><path id="bi" d="M182.26 772.17q5.03 1.42 10.25 1.6" style="fill:none;stroke:#000;stroke-linecap:round;stroke-linejoin:round"/><path id="bj" d="M212 554.61c1.9 4.56 4.21 9 5.65 13.72 1.32 4.38.59 9.07 1.47 13.5.8 4 1.77 7.97 3.78 11.58 1.29 2.31 2.48 4.65 2.76 7.38.36 3.53.42 7.08 1.09 10.57.68 3.52 3.26 6.5 3.43 10.17.16 3.19 2.17 6.2 2 9.32-.14 2.71-1.54 5.17-1.43 7.96.12 2.96.23 5.98 1.11 8.77.84 2.65 2.66 4.97 3.64 7.53" style="fill:none;stroke:#000;stroke-linecap:round;stroke-linejoin:round"/><path id="bk" d="M205 558.61c1.56 3.01 4.03 5.72 4.84 8.98 1.43 5.8 1.98 11.81 3.93 17.46 1.55 4.51 3.5 8.87 4.58 13.55 1.12 4.86 2.43 9.67 3.65 14.5" style="fill:none;stroke:#000;stroke-linecap:round;stroke-linejoin:round"/><path id="bl" d="M223.5 603.86c.34 3.22-.1 6.59.81 9.68.94 3.23 2.04 6.35 2.4 9.73.56 5.28.75 10.6-.37 15.81-.54 2.55-1.26 5.05-.77 7.72.66 3.67 1.82 7.16 2.68 10.81.43 1.82.35 3.19 1.25 4.75" style="fill:none;stroke:#000;stroke-linecap:round;stroke-linejoin:round"/><path id="bm" d="M229.25 599.11c1.34 4.18 3.35 8.36 3.45 12.74.06 2.32-1.13 4.75-.54 6.98a26 26 0 0 0 3.83 8.67c.99 1.4.17 3.59.23 5.35.09 2.38-.89 5 .07 7.19a32.5 32.5 0 0 1 2.46 14.32c-.18 4.84 0-.16 0-.25" style="fill:none;stroke:#000;stroke-linecap:round;stroke-linejoin:round"/><path id="bn" d="M203.5 567.11c1.45 4.14 2.18 8.46 3.26 12.7.62 2.42.7 5.23 2.16 7.22 1.3 1.77 2.56 3.28 3.56 5.19a9.5 9.5 0 0 1 1.02 5.1 39 39 0 0 0 3.25 17.04c.63 1.48 1.86 2.08 2.24 3.66.78 3.2.33 6.4.8 9.58a36 36 0 0 1-.04 10c-.43 3.3.92 6.39 1.75 9.51.09.32 0-.67 0-1" style="fill:none;stroke:#000;stroke-linecap:round;stroke-linejoin:round"/><path id="bo" d="M231.75 581.11c2.21 3.69 3.42 7.82 4.25 12 .35 1.76-.45 3.74.92 5.2 1.57 1.67.9 4.13 1.47 6.23.63 2.34.48 4.93 1.61 7.07.6 1.13 2.16 2.06 2.75 3.49.73 1.77.72 2.6.25 4.26-.42 1.5-.72 1.97-.68 3.73" style="fill:none;stroke:#000;stroke-linecap:round;stroke-linejoin:round"/><path id="bp" d="M221.25 571.36c.92 2 2.14 3.92 1.87 6.2-.31 2.73 1.4 5 1.94 7.54.52 2.47.23 5.02.63 7.48.25 1.49.45 2.98 1.31 4.28" style="fill:none;stroke:#000;stroke-linecap:round;stroke-linejoin:round"/><path id="bq" d="M279.72 251.18s2.48-1.14 3.53-1.43c1.22-.33 2.55-.1 3.75-.5 1.45-.48 3-1.09 4-2.25.76-.87.38-2.48 1.25-3.25.77-.68 2.17-.14 3-.75 1.27-.92 1.46-2.82 2.5-4 1.42-1.6 4.08-2.07 5-4 .29-.6-.31-1.4 0-2 .43-.8 1.79-.72 2.25-1.5.47-.79.13-1.83.25-2.75.13-.92 0-1.96.5-2.75.38-.6 1.42-.61 1.75-1.25.34-.66-.17-1.52 0-2.25.17-.72.83-1.27 1-2 .08-.32 0-1.97 0-1.97" style="fill:none;stroke:#000;stroke-linecap:round;stroke-linejoin:round" transform="translate(0 512.36)"/><path id="br" d="M280.66 765.66s1.95-1.5 3-1.78c1.22-.33 4.5-.37 5.7-.76 1.45-.49 3-1.1 4-2.25.75-.88.38-2.49 1.25-3.25.77-.69 2.16-.15 3-.75 1.27-.93 1.45-2.83 2.5-4 1.41-1.6 4.07-2.08 5-4 .28-.6-.32-1.42 0-2 .42-.8 1.78-.73 2.25-1.5.47-.8.12-1.84.25-2.75.12-.93 0-1.97.5-2.75.38-.61 1.42-.62 1.75-1.25.34-.67-.18-1.52 0-2.25s.2-1.2.38-1.92" style="fill:none;stroke:#000;stroke-linecap:round;stroke-linejoin:round"/><path id="bs" d="M287.86 781.11s1.92-1.04 2.95-1.34c1.2-.35 2.52-.1 3.7-.54 1.42-.52 2.95-1.17 3.93-2.41.75-.94.38-2.66 1.23-3.49.76-.73 2.13-.15 2.95-.8 1.26-1 1.44-3.03 2.46-4.3 1.4-1.7 4.01-2.22 4.93-4.29.28-.64-.31-1.51 0-2.14.42-.86 1.76-.78 2.21-1.61.46-.85.13-1.97.25-2.95.12-1 0-2.1.49-2.95.38-.65 1.4-.66 1.72-1.34.34-.72-.17-1.64 0-2.42s.82-1.37.99-2.14c.07-.35 0-1.08 0-1.08" style="fill:none;stroke:#000;stroke-linecap:round;stroke-linejoin:round"/><path id="bt" d="M296.61 781.86c1.4-.5 2.9-1.14 3.87-2.36.73-.92.37-2.6 1.2-3.4.76-.72 2.1-.15 2.9-.79 1.24-.96 1.42-2.96 2.43-4.19 1.37-1.67 3.94-2.17 4.83-4.19.28-.63-.3-1.48 0-2.1.41-.83 1.73-.75 2.18-1.56.45-.83.12-1.93.24-2.88.12-.97 0-2.06.49-2.89.37-.63 1.37-.64 1.69-1.3.33-.7-.17-1.6 0-2.36.16-.76.8-1.34.97-2.1.07-.34 0-1.04 0-1.04" style="fill:none;stroke:#000;stroke-linecap:round;stroke-linejoin:round"/><path id="bu" d="m208.24 31.06 9.37 8.49 7.78 7.07 5.83 6.18 5.48 5.3 5.13 6.72" style="fill:none;stroke:#000;stroke-linecap:round;stroke-linejoin:round" transform="translate(0 512.36)"/><path id="bv" d="m216.37 543.16 8.53 8.04 7.08 6.7 5.32 5.86 4.99 5.03 4.66 6.37" style="fill:none;stroke:#000;stroke-linecap:round;stroke-linejoin:round"/><path id="bw" d="m219.29 542.63 7.99 7.46 6.63 6.22 4.97 5.45 4.68 4.66 4.37 5.9" style="fill:none;stroke:#000;stroke-linecap:round;stroke-linejoin:round"/><g style="fill:#005"><use xlink:href="#d" width="360" height="540" transform="translate(0 512.36)"/><use xlink:href="#d" width="360" height="540" transform="translate(13.35 524.91)"/><use xlink:href="#d" width="360" height="540" style="stroke-width:1.10000002" transform="rotate(35.8 -621.4 398.96)scale(.82608 1)"/></g><g style="fill:#a00"><use xlink:href="#d" width="360" height="540" transform="translate(6.45 518.73)"/><use xlink:href="#d" width="360" height="540" transform="translate(19.36 531.28)"/><use xlink:href="#d" width="360" height="540" style="stroke-width:1.23800004" transform="rotate(55.9 -318.16 402.83)scale(.65218 1)"/></g><path d="m224.68 31.06.35 3.89" style="fill:none;stroke:#000;stroke-linecap:round;stroke-linejoin:round" transform="translate(0 512.36)"/><path id="bx" d="m232.28 41.67 4.95-.18-.53 5.13" style="fill:none;stroke:#000;stroke-linecap:round;stroke-linejoin:round" transform="translate(0 512.36)"/><path id="by" d="m245.72 55.63 6.36.18" style="fill:none;stroke:#000;stroke-linecap:round;stroke-linejoin:round" transform="translate(0 512.36)"/><path id="bz" d="M266.5 227.25s-2.17 7.3-3.75 10.75a74 74 0 0 1-6.75 11.75c-2.44 3.49-5.4 6.59-8.25 9.75-2.01 2.23-3.88 4.64-6.25 6.5a37 37 0 0 1-4.75 2.75" style="fill:none;stroke:#000;stroke-linecap:round;stroke-linejoin:round" transform="translate(0 512.36)"/><path id="bA" d="M268.87 743.11s-1.94 6.77-3.34 9.97a70 70 0 0 1-6.01 10.9c-2.18 3.24-4.8 6.12-7.35 9.05-1.8 2.07-3.46 4.31-5.57 6.03-1.28 1.05-4.23 2.55-4.23 2.55" style="fill:none;stroke:#000;stroke-linecap:round;stroke-linejoin:round"/><path id="bB" d="M271.12 746.86s-1.79 6.2-3.09 9.13a64 64 0 0 1-5.56 9.98c-2 2.96-4.44 5.6-6.8 8.28-1.65 1.9-3.19 3.95-5.14 5.52a30 30 0 0 1-3.91 2.34" style="fill:none;stroke:#000;stroke-linecap:round;stroke-linejoin:round"/><path id="bC" d="M273.87 748.61s-1.6 5.85-2.77 8.61a61 61 0 0 1-5 9.42c-1.8 2.79-3.99 5.28-6.1 7.8-1.49 1.8-2.87 3.73-4.62 5.22-1.06.9-3.51 2.2-3.51 2.2" style="fill:none;stroke:#000;stroke-linecap:round;stroke-linejoin:round"/><path id="bD" d="M275.5 752.86s-1.31 5.1-2.27 7.51a54 54 0 0 1-4.08 8.21c-1.48 2.44-3.27 4.6-5 6.82-1.21 1.56-2.35 3.24-3.78 4.54-.87.79-2.87 1.92-2.87 1.92" style="fill:none;stroke:#000;stroke-linecap:round;stroke-linejoin:round"/><path id="bE" d="M276.5 758.61s-1.08 4.09-1.86 6.02a43 43 0 0 1-3.35 6.58c-1.2 1.95-2.67 3.7-4.09 5.46-1 1.25-1.92 2.6-3.1 3.65-.7.63-2.35 1.54-2.35 1.54" style="fill:none;stroke:#000;stroke-linecap:round;stroke-linejoin:round"/><path id="bF" d="M278 762.36s-.86 3.47-1.48 5.12a38 38 0 0 1-2.67 5.59c-.96 1.66-2.13 3.13-3.26 4.64-.79 1.06-1.53 2.2-2.46 3.1-.57.53-1.88 1.3-1.88 1.3" style="fill:none;stroke:#000;stroke-linecap:round;stroke-linejoin:round"/><path id="bG" d="M279.75 765.86s-.66 2.81-1.13 4.14a31 31 0 0 1-2.05 4.53c-.74 1.35-1.63 2.54-2.5 3.76-.6.86-1.17 1.8-1.88 2.51-.44.44-1.44 1.06-1.44 1.06" style="fill:none;stroke:#000;stroke-linecap:round;stroke-linejoin:round"/><path id="bH" d="M281.5 769.11s-.55 2.2-.94 3.24a24 24 0 0 1-1.7 3.54c-.62 1.05-1.37 1.98-2.09 2.93-.5.68-.98 1.4-1.57 1.96a10 10 0 0 1-1.2.83" style="fill:none;stroke:#000;stroke-linecap:round;stroke-linejoin:round"/><path id="bI" d="M141.35 745.73c-.73 1.17-1.48 2.34-1.99 3.73a18 18 0 0 0-.92 3.85c-.14.85-.1 2.56-.22 3.4" style="fill:none;stroke:#000;stroke-linecap:round;stroke-linejoin:round"/><path id="bJ" d="M182.25 268.75c.57-.6 1.27-1.34 1.74-2.03.38-.57.92-.8.76-1.47-.24-.97-1.24-1.63-2.09-2.16-1.02-.65-2.26-.69-3.41-1.09-1.02-.36-2.16-.56-3-1.25-1.4-1.15-1.45-2.73-2.3-4.32-1.04-1.99-1.8-4.68-3.2-6.43-1.58-1.96-4.1-2.94-6.25-4.25-1.94-1.18-3.89-2.4-6-3.25-1.76-.7-3.7-.9-5.5-1.5-2.2-.72-4.3-1.78-6.5-2.5-1.23-.4-2.57-.46-3.75-1-.75-.34-1.35-.93-2.04-1.38-.55-.36-1.02-.96-1.68-1.06-.45-.07-.97.06-1.32.35-.38.32-.51.85-.62 1.33a4 4 0 0 0 0 1.68c.18.74.68 1.37 1.06 2.03.33.58 1.5 2.7 1.95 3.18.5.55.94.98 1.59 1.33s.64.3 1.32.62c.62.3 1.14.8 1.77 1.06.76.32 1.6.38 2.39.62.6.18 1.17.42 1.77.62.76.25 1.5.56 2.3.7.52.1 1.08-.08 1.58.1.24.08.68.19.62.43-.06.3-.58.19-.88.18-.85-.02-1.66-.36-2.48-.62-1.2-.37-2.35-.88-3.53-1.32-1.24-.47-2.49-.91-3.71-1.42-.75-.3-1.23-.08-1.95-.44-1.05-.52-2.56-.22-3.62-.7-.98-.45-1.73-.9-2.74-1.24-1.4-.47-2.72-1.91-4.16-2.21-1.77-.38-3.61-2.13-5.39-2.48-.69-.13-1.34-.42-2.03-.53q-1.1-.15-2.21-.09c-.78.05-1.58.07-2.3.36-.47.19-1.06.4-1.24.88-.16.46.14.98.36 1.42.33.65.86 1.2 1.41 1.68.58.5 1.31.8 1.95 1.23q.98.68 1.94 1.42c.6.45 1.14.99 1.77 1.41.64.44 1.36.76 2.03 1.15 1.07.63 2.16 1.24 3.18 1.94 1.08.74 1.96 1.77 3.1 2.39s2.49.84 3.71 1.33c.69.27 1.34.64 2.03.88 1.21.42 2.5.58 3.72.97.93.3 1.88.59 2.74 1.06.51.29 1.41.47 1.4 1.06 0 .4-.56.17-.96.18-.6.02-1-.67-1.5-.97-.7-.41-1.41-.25-2.13-.62-.76-.4-1.5-.82-2.3-1.15-1.26-.53-2.63-.79-3.88-1.33-.77-.32-1.44-.84-2.21-1.14-.6-.24-1.28-.26-1.86-.53-.75-.36-1.34-.98-2.03-1.42-.55-.35-1.16-.58-1.68-.97-.55-.41-.95-1.01-1.5-1.41q-.59-.42-1.24-.71c-.31-.15-.65-.47-.97-.36-.27.1-.37.44-.45.71-.12.43-.08.9 0 1.33.1.44.32.84.53 1.23.2.38.5.7.71 1.07q.3.47.53.97l.62 1.32.7 1.42q.55 1.1 1.07 2.2c.2.45.35.93.62 1.33q.4.6.97 1.06.64.56 1.41.98 1.06.55 2.21.88.66.2 1.33.27c.85.08 1.72-.16 2.56 0 .65.12 1.22.52 1.86.7.7.2 1.46.14 2.12.44.44.2.77.6 1.15.89.26.2.87.3.8.62-.08.29-.6.22-.89.17-.43-.06-.77-.4-1.15-.61-.48-.28-.9-.66-1.41-.89-.48-.21-1-.32-1.5-.44-.8-.19-1.6-.25-2.4-.44-.5-.12-.98-.34-1.5-.44-.46-.1-.95-.07-1.4-.18-.53-.12-1-.4-1.51-.53-.38-.1-.78-.08-1.15-.18-.33-.08-.74-.1-.97-.35-.25-.27-.13-.73-.27-1.06-.21-.52-.58-.95-.88-1.42-.26-.41-.45-.89-.8-1.23-.3-.3-.64-.67-1.06-.71-.22-.02-.45.11-.62.26a2 2 0 0 0-.53.98c-.1.4 0 .82 0 1.23 0 .36-.05.71 0 1.06.1.58.35 1.12.53 1.68q.24.66.44 1.33c.2.7.1 1.54.53 2.12.33.43.93.56 1.42.8q.6.3 1.24.53c.66.22 1.35.34 2.03.53s1.34.45 2.03.61c.87.21 2.28-.37 2.65.45.08.15-.1.37-.26.44-.31.12-.65-.19-.97-.27-.62-.14-1.26-.15-1.86-.35-.37-.13-.7-.39-1.06-.53-.63-.24-1.3-.36-1.95-.53-.58-.15-1.18-.27-1.76-.44-.45-.13-.88-.33-1.33-.44a7 7 0 0 0-1.6-.27c-.44 0-.99-.12-1.32.18-.47.42-.36 1.22-.44 1.85-.03.3-.12.62 0 .89.15.32.5.5.8.7.38.28 1.23.71 1.23.71l56.4-.09s.3-.55.52-.78" style="fill:#ffa9aa;stroke:#000;stroke-linecap:round;stroke-linejoin:round" transform="translate(0 512.36)"/><path id="bK" d="M138.59 748.13c.17.6.32 1.21.67 1.72.4.56 1.07.82 1.66 1.13.57.3 1.24.42 1.88.31q.58-.08 1.02-.46l.25-.22" style="fill:none;stroke:#000;stroke-linecap:round;stroke-linejoin:round"/><path id="bL" d="M118.35 754.23c1.02.55 2.41 1.12 3.57 1.28.5.07 1.01.16 1.49-.01.44-.17.69-.62.94-1 .22-.3.01-.67-.12-.97-.22-.47-.34-1.04-.8-1.36-.6-.4-1.18-.81-1.85-1.05-.13-.05-.7-.37-.84-.42" style="fill:none;stroke:#000;stroke-linecap:round;stroke-linejoin:round"/><g style="stroke-width:1.21700001"><g transform="matrix(.66282 .45787 -.41495 .73139 386.74 89.4)"><path d="M235.28 732.48c-1.74 3.72-1.12 6.7-.7 10.04-.1 1.17.43 3.58.72 4.7.28 1.86.76 3.14.76 5.03-.03.84-.16 2.4.13 2.7 1.07-.1 1.06-1.57 1.17-2.47.1-1.26.3-2.69 1.3-3.49 1.02-.92 2.18-1.67 3.01-2.82a11.3 11.3 0 0 0 2.92-6.45" style="fill:none;stroke:#000;stroke-linecap:round;stroke-linejoin:round"/><use xlink:href="#e" width="360" height="540"/><path d="M238.4 736.19c.4 2.22 1.87 5.83 1.2 8.06-.15.63-.34 3.74-.54 4.35" style="fill:none;stroke:#000;stroke-linecap:round;stroke-linejoin:round"/><use xlink:href="#f" width="360" height="540"/></g><g transform="matrix(.54231 .59572 -.56939 .6188 511.64 168.95)"><path d="M235.28 732.48c-1.74 3.72-1.12 6.7-.7 10.04-.1 1.17.43 3.58.72 4.7.28 1.86.76 3.14.76 5.03-.03.84-.16 2.4.13 2.7 1.07-.1 1.06-1.57 1.17-2.47.1-1.26.3-2.69 1.3-3.49 1.02-.92 2.18-1.67 3.01-2.82a11.3 11.3 0 0 0 2.92-6.45" style="fill:none;stroke:#000;stroke-linecap:round;stroke-linejoin:round"/><use xlink:href="#e" width="360" height="540"/><use xlink:href="#g" width="360" height="540"/><use xlink:href="#f" width="360" height="540"/></g></g><g style="stroke-width:1.36500001" transform="matrix(.49069 .51409 -.4689 .60188 472.31 193.71)"><path d="M235.28 732.48c-1.74 3.72-1.12 6.7-.7 10.04-.1 1.17.43 3.58.72 4.7.28 1.86.76 3.14.76 5.03-.03.84-.16 2.4.13 2.7 1.07-.1 1.06-1.57 1.17-2.47.1-1.26.3-2.69 1.3-3.49 1.02-.92 2.18-1.67 3.01-2.82a11.3 11.3 0 0 0 2.92-6.45" style="fill:none;stroke:#000;stroke-linecap:round;stroke-linejoin:round"/><use xlink:href="#e" width="360" height="540"/><use xlink:href="#g" width="360" height="540"/><use xlink:href="#f" width="360" height="540"/></g><g style="stroke-width:1.403" transform="matrix(.49933 .45787 -.3126 .73139 365.84 87.54)"><use xlink:href="#h" width="360" height="540"/><use xlink:href="#e" width="360" height="540"/><use xlink:href="#g" width="360" height="540"/><use xlink:href="#f" width="360" height="540"/></g><path id="bM" d="M245.04 705.42s-.26 4.22-.65 6.27a44 44 0 0 1-2 7.1c-.81 2.16-1.91 4.15-2.95 6.16-.74 1.42-1.39 2.93-2.34 4.17-.57.76-2 1.97-2 1.97" style="fill:none;stroke:#000;stroke-linecap:round;stroke-linejoin:round"/><path id="bN" d="M247.51 708.6s-.17 3.2-.41 4.76q-.46 2.78-1.27 5.4c-.51 1.63-1.2 3.14-1.86 4.67-.47 1.07-.88 2.22-1.48 3.17" style="fill:none;stroke:#000;stroke-linecap:round;stroke-linejoin:round"/><path id="bO" d="M249.64 711.78s-.22 3.58-.56 5.32q-.6 3.12-1.72 6.03c-.7 1.82-1.64 3.51-2.53 5.22-.63 1.2-1.19 2.48-2 3.54" style="fill:none;stroke:#000;stroke-linecap:round;stroke-linejoin:round"/><path id="bP" d="M251.76 716.38s-.12 2.26-.3 3.35q-.34 1.96-.95 3.8c-.38 1.15-.9 2.22-1.38 3.3-.35.76-.65 1.56-1.1 2.23-.27.4-.94 1.05-.94 1.05" style="fill:none;stroke:#000;stroke-linecap:round;stroke-linejoin:round"/><path id="bQ" d="M253.88 722.04s-.13 1.95-.33 2.9a19 19 0 0 1-1 3.3c-.42.99-.97 1.9-1.5 2.84-.36.66-.69 1.35-1.17 1.93-.29.35-1 .91-1 .91" style="fill:none;stroke:#000;stroke-linecap:round;stroke-linejoin:round"/><path id="bR" d="M212.16 760.22s-.59 3.47-1.47 5.15c-1.04 2-2.57 3.96-4.5 5.83-1.81 1.77-4.27 3.4-6.61 5.05-1.66 1.17-3.1 2.4-5.24 3.43-1.3.62-4.5 1.62-4.5 1.62" style="fill:none;stroke:#000;stroke-linecap:round;stroke-linejoin:round"/><path id="bS" d="M218.98 755.02s-1.38 3.9-2.31 6.03c-1.11 2.54-2.98 6.28-5.03 8.65a46 46 0 0 1-5.79 5.9c-1.76 1.49-3.3 3.06-5.56 4.35-1.38.8-4.8 2.05-4.8 2.05" style="fill:none;stroke:#000;stroke-linecap:round;stroke-linejoin:round"/><path id="bT" d="M236.5 771.6q-1.21 1.9-3.43 3.68c-1.38 1.12-3.26 2.15-5.05 3.19-1.26.74-2.37 1.52-3.99 2.16-.99.4-3.44 1.02-3.44 1.02" style="fill:none;stroke:#000;stroke-linecap:round;stroke-linejoin:round"/><path id="bU" d="M229.78 771.77q-1.21 1.9-3.43 3.68c-1.38 1.12-3.26 2.15-5.05 3.19-1.26.74-2.37 1.52-3.99 2.16-.99.4-3.44 1.02-3.44 1.02" style="fill:none;stroke:#000;stroke-linecap:round;stroke-linejoin:round"/><path id="bV" d="M216.98 777.47q-.91.9-2.57 1.72c-1.04.53-2.46 1-3.8 1.5-.94.34-1.77.7-2.99 1-.74.2-2.58.49-2.58.49" style="fill:none;stroke:#000;stroke-linecap:round;stroke-linejoin:round"/><path id="bW" d="M260.95 732.82s-.33 4.45-.82 6.61a40 40 0 0 1-2.5 7.5c-1 2.27-2.38 4.37-3.68 6.5-.92 1.5-1.73 3.08-2.91 4.4-.73.8-2.52 2.08-2.52 2.08" style="fill:none;stroke:#000;stroke-linecap:round;stroke-linejoin:round"/><path id="bX" d="M254.05 745.62s-.19 1.74-.47 2.58q-.5 1.51-1.43 2.93c-.58.88-1.37 1.7-2.11 2.53-.53.59-.99 1.2-1.67 1.72-.41.31-1.44.8-1.44.8" style="fill:none;stroke:#000;stroke-linecap:round;stroke-linejoin:round"/><path id="bY" d="M77.43 718.61c-.15.69-.39 1.36-.44 2.06-.08 1.04-.01 2.1.04 3.15.04.62.06 1.24.14 1.85.05.38.06.76.19 1.13q.31.94.6 1.89" style="fill:none;stroke:#000;stroke-linecap:round;stroke-linejoin:round"/><path id="bZ" d="M87.24 767.22c1.56-.83 3.2-1.51 4.68-2.47 1.33-.87 2.46-2 3.71-2.97.61-.48 1.14-1.05 1.71-1.57l.6-.6" style="fill:none;stroke:#000;stroke-linecap:round;stroke-linejoin:round"/><path id="ca" d="M86.31 765.01c1.56-.83 3.2-1.51 4.68-2.47 1.33-.87 2.46-2 3.71-2.97.61-.48 1.14-1.05 1.71-1.57l.6-.6" style="fill:none;stroke:#000;stroke-linecap:round;stroke-linejoin:round"/><path id="cb" d="M86.58 762.36c1.35-.82 2.78-1.5 4.07-2.45 1.14-.85 2.13-1.97 3.21-2.93.53-.47.99-1.03 1.48-1.55q.27-.28.52-.58" style="fill:none;stroke:#000;stroke-linecap:round;stroke-linejoin:round"/><path id="cc" d="M86.22 759.71c1.3-.8 2.68-1.44 3.91-2.36 1.1-.82 2.05-1.9 3.1-2.83.5-.45.94-1 1.42-1.5q.25-.26.5-.56" style="fill:none;stroke:#000;stroke-linecap:round;stroke-linejoin:round"/><path id="cd" d="M86.49 756.97c1.24-.84 2.54-1.53 3.72-2.5 1.05-.88 1.94-2.02 2.94-3 .48-.48.9-1.06 1.35-1.59l.48-.6" style="fill:none;stroke:#000;stroke-linecap:round;stroke-linejoin:round"/><path id="ce" d="M86.53 753.74c1.24-.84 2.54-1.53 3.72-2.5 1.05-.88 1.94-2.02 2.94-3 .48-.48.9-1.06 1.35-1.59l.48-.6" style="fill:none;stroke:#000;stroke-linecap:round;stroke-linejoin:round"/><path id="cf" d="M86.89 750.83c1.24-.84 2.54-1.53 3.72-2.5 1.05-.88 1.94-2.02 2.94-3 .48-.48.9-1.06 1.35-1.59l.48-.6" style="fill:none;stroke:#000;stroke-linecap:round;stroke-linejoin:round"/><path id="cg" d="M86.8 747.73c1.24-.84 2.54-1.53 3.72-2.5 1.05-.88 1.94-2.02 2.94-3 .48-.48.9-1.06 1.35-1.59l.48-.6" style="fill:none;stroke:#000;stroke-linecap:round;stroke-linejoin:round"/><path id="ch" d="M70.71 745.92c.67 0 1.34.04 2 0 .49-.04 1-.03 1.46-.19.57-.19 1.1-.49 1.6-.8.31-.2.58-.46.86-.69" style="fill:none;stroke:#000;stroke-linecap:round;stroke-linejoin:round"/><path id="ci" d="M73.54 749.54c.63-.35 1.22-.77 1.87-1.07.45-.2.94-.29 1.4-.43" style="fill:none;stroke:#000;stroke-linecap:round;stroke-linejoin:round"/><path id="cj" d="M70.53 758.74a5.6 5.6 0 0 0-2.33 2.21c-.5.92-.89 2-.68 3.06.15.72-.44.66-.88 1.1-.6.58-.92 1.42-.88 2.33.03.82.52 1.4.67 2.2.16.82-.39 2.43-.12 3.2.21.6.43 1.36 1.2 1.5.61.11 1.15.38 1.56.9.74.95 2.1.95 2.57 2.07.24.55.56.97 1.15 1.21.64.26 1.39.5 1.84.99.35.38.21 1.23.77 1.4.82.27 1.72.43 2.55.22.61-.16 1.59-.05 1.77-.65.3-.94.35-.51.91-.22.75.38 1.46 1.06 2.29 1.1q3.28.22 6.54-.23c1.4-.2 2.81-.28 4.17-.74 1.4-.47 2.85-.75 4.13-1.5 1.09-.63 2.25-1.72 3.47-2.01.78-.19 1.52.18 2.13-.37.5-.44 1.15-.7 1.34-1.42.19-.76.52-1.45.48-2.27-.05-1.16.33-2.43-.18-3.48-.62-1.29-1.75-2.25-2.65-3.36-.6-.73-1.69-1.02-1.97-1.99-.18-.64-.88-1.3-1.55-.9-.56.32-1.4.34-1.7.94-.51.96-.91 2.1-1.54 2.99-.48.69-1.44.93-2.16 1.38-1.4.88-2.76 1.92-4.35 2.39-1.26.37-2.58.35-3.9.32-1.11-.03-2.35.51-3.34 0-.5-.26.15-1.18-.57-1.38-.51-.14-1.05-.9-1.41-.17-.34.67-.92.37-1.49.22-1.08-.3-2.3-.5-3.13-1.22-.78-.67-1.46-1.38-2.24-2.04-1.02-.9-1.19-2.37-1.91-3.48-.39-.6.06-1.19.31-1.72.32-.66-.23-1.16-.44-1.72-.11-.3-.14-1-.43-.86" style="fill:#fa5;stroke:#000;stroke-linecap:round;stroke-linejoin:round"/><path id="ck" d="M68 761.36c-.23 1.64 1.18 3.8 2.05 5.05a16 16 0 0 0 3.07 3.28c1 .8 2.06 1.54 3.28 2 .95.36 1.82.98 2.8 1.2 1.37.31 2.74.65 4.13.71 1.7.09 3.44.3 5.11-.02 1.77-.34 3.52-.94 5.12-1.77 1.26-.66 2.52-1.09 3.47-2.14.68-.76 1.58-1.64 2.32-2.37.45-.46 1.35-.97 1.15-2.57" style="fill:none;stroke:#000;stroke-linecap:round;stroke-linejoin:round"/><path id="cl" d="M66.14 766.79c-.27 1.52 1.4 3.53 2.46 4.7a17 17 0 0 0 3.67 3.04c1.2.75 2.49 1.43 3.94 1.86 1.14.34 2.18.92 3.37 1.12 1.63.29 3.28.6 4.95.67 2.04.07 4.12.27 6.12-.03 2.12-.31 3.72-1.12 5.63-1.89a15 15 0 0 0 4.17-2.34c.82-.7 1.45-1.4 2.33-2.09a4.4 4.4 0 0 0 1.1-2.76" style="fill:none;stroke:#000;stroke-linecap:round;stroke-linejoin:round"/><path id="cm" d="M79.63 259.06a7.13 7.06 0 1 1-14.25 0 7.13 7.06 0 1 1 14.25 0" style="fill:#aa0300;stroke:#000;stroke-width:3.33200002;stroke-linecap:round;stroke-linejoin:round;stroke-dashoffset:1" transform="rotate(18.13 -2073.4 582.86)scale(.25438 .35398)"/><path id="cn" d="M77 261a2.13 2.25 0 1 1-4.25 0 2.13 2.25 0 1 1 4.25 0" style="fill:#00a;stroke:#000;stroke-linecap:round;stroke-linejoin:round;stroke-dashoffset:1" transform="translate(0 512.36)"/><path id="co" d="M85.13 263.63a2.06 2.13 0 1 1-4.13 0 2.06 2.13 0 1 1 4.13 0" style="fill:#aa0300;stroke:#000;stroke-linecap:round;stroke-linejoin:round;stroke-dashoffset:1" transform="translate(0 512.36)"/><path id="cp" d="M94.25 263.06a2 2.06 0 1 1-4 0 2 2.06 0 1 1 4 0" style="fill:#00a;stroke:#000;stroke-linecap:round;stroke-linejoin:round;stroke-dashoffset:1" transform="translate(0 512.36)"/><path id="cq" d="M101.5 260.06a2 2.06 0 1 1-4 0 2 2.06 0 1 1 4 0" style="fill:#aa0300;stroke:#000;stroke-linecap:round;stroke-linejoin:round;stroke-dashoffset:1" transform="translate(-.38 511.49)"/><path id="cr" d="M72.25 751.11c-2.43 1.36-5.09 2.4-7.32 4.07-2.02 1.5-3.47 3.66-5.39 5.3-2.05 1.75-4.31 3.26-6.28 5.1q-5.35 5.06-10.64 10.17c-2.04 1.95-3.91 4.07-5.87 6.11l30.5.25c-.43-2.2-.12-4.43-.25-6.65-.03-.55.31-1.44-.16-1.7-.66-.37-.63-.86-.59-1.47.1-1.6-.43-3.12-.75-4.68-.17-.82-.42-1.78 0-2.5.47-.8 1.48-1.13 2.45-1.19.63-.04.23-1.03.3-1.52.09-.65.4-1.25.75-1.79.38-.59 1.3-.8 1.56-1.43.57-1.43 1.02-2.9 1.17-4.45.12-1.22.35-2.41.52-3.62" style="fill:#aaf;stroke:#000;stroke-linecap:round;stroke-linejoin:round"/><path id="cs" d="M64.25 758.11c-1.58 2.74-2.98 5.65-5.08 8.03-1.9 2.14-3.81 4.28-5.43 6.64-1 1.45-1.29 3.17-1.74 4.83q-.23.75-.5 1.5" style="fill:none;stroke:#000;stroke-linecap:round;stroke-linejoin:round"/><path id="ct" d="M70.5 754.36c-2 2.62-4.04 5.19-5.95 7.87-1.67 2.34-2.08 5.34-3.9 7.6-1.04 1.27-1.08 2.94-.93 4.52.23 2.44-.42 4.89-.97 7.26" style="fill:none;stroke:#000;stroke-linecap:round;stroke-linejoin:round"/><path id="cu" d="M63.75 772.36c-.75 1.53-1.45 3.19-1.18 4.97.17 1.18.8 2.15 1 3.28.15.77-.73 1.06-1.32 1.25" style="fill:none;stroke:#000;stroke-linecap:round;stroke-linejoin:round"/><path id="cv" d="M106.25 721.36c.53 4.67.9 9.35 1.79 13.97.43 2.29.16 4.64.21 6.96.1 4.74-.37 9.48-.2 14.21.07 2.16-.24 4.47.51 6.47 1.13 3 3.02 5.66 4.69 8.39.16.26.5.33.75.5" style="fill:none;stroke:#000;stroke-linecap:round;stroke-linejoin:round"/><path id="cw" d="M101.5 742.86c.2 1.95-.08 4.02.56 5.87 1.13 3.3 3.45 6.17 4.45 9.5.64 2.13.04 4.49.57 6.63.4 1.6.84 3.24 1.96 4.52a12 12 0 0 1 2.36 3.78c.53 1.52 1.23 2.97 1.85 4.45" style="fill:none;stroke:#000;stroke-linecap:round;stroke-linejoin:round"/><path id="cx" d="M114 755.61c.23 1.9-.02 3.94.6 5.74 1.05 2.99 2.9 5.7 3.7 8.76.94 3.7 1.01 7.57 1.86 11.3l.09.45" style="fill:none;stroke:#000;stroke-linecap:round;stroke-linejoin:round"/><path id="cy" d="M127.99 736.43c-.87 1.5-1.77 3.02-2.38 4.8-.64 1.88-.8 2.95-1.11 4.98-.16 1.09-.12 3.3-.26 4.39" style="fill:none;stroke:#000;stroke-linecap:round;stroke-linejoin:round"/><path id="cz" d="M130.21 737.25c-.87 1.5-1.77 3.02-2.38 4.8-.64 1.89-.8 2.95-1.11 4.98-.16 1.09-.12 3.3-.26 4.39" style="fill:none;stroke:#000;stroke-linecap:round;stroke-linejoin:round"/><path id="cA" d="M132.69 739.28c-.8 1.42-1.65 2.85-2.21 4.54-.6 1.77-.75 2.78-1.03 4.7-.15 1.02-.11 3.1-.24 4.13" style="fill:none;stroke:#000;stroke-linecap:round;stroke-linejoin:round"/><path id="cB" d="M135.07 740.96c-.87 1.36-1.77 2.72-2.38 4.33a20 20 0 0 0-1.11 4.48c-.16.97-.12 2.96-.26 3.94" style="fill:none;stroke:#000;stroke-linecap:round;stroke-linejoin:round"/><path id="cC" d="M137.37 742.37c-.87 1.38-1.77 2.77-2.38 4.42-.64 1.72-.8 2.7-1.11 4.57-.16 1-.12 3.02-.26 4.03" style="fill:none;stroke:#000;stroke-linecap:round;stroke-linejoin:round"/><path id="cD" d="M125.97 734.77c-.91 1.26-1.86 2.53-2.5 4.03a17 17 0 0 0-1.16 4.17c-.17.9-.12 2.75-.26 3.67" style="fill:none;stroke:#000;stroke-linecap:round;stroke-linejoin:round"/><path id="cE" d="M123.76 732.83c-.8 1.03-1.65 2.06-2.21 3.28a13 13 0 0 0-1.03 3.39c-.15.74-.11 2.24-.24 2.99" style="fill:none;stroke:#000;stroke-linecap:round;stroke-linejoin:round"/><path id="cF" d="M120.76 731.06c-.56 1-1.15 2-1.54 3.19a17 17 0 0 0-.72 3.3c-.1.72-.07 2.18-.16 2.9" style="fill:none;stroke:#000;stroke-linecap:round;stroke-linejoin:round"/><path id="cG" d="M178.19 637.11c-3.6 6.3-6.9 12.88-12.04 18.1-5.08 5.17-.23.27-.34.4l-.34.41" style="fill:none;stroke:#000;stroke-linecap:round;stroke-linejoin:round"/><path id="cH" d="M172.89 636.76c-1.6 4.49-2.92 9.24-6.46 12.7-4.63 4.52-9.86 8.6-15.81 11.16" style="fill:none;stroke:#000;stroke-linecap:round;stroke-linejoin:round"/><path id="cI" d="M169 656.38c-4.62.92-9.21 2.09-13.3 4.56-6.18 3.73-12.37 7.64-19.4 9.58" style="fill:none;stroke:#000;stroke-linecap:round;stroke-linejoin:round"/><path id="cJ" d="M140.01 671.76c-4.01 4.74-8.82 8.76-12.36 13.94-1.96 2.87-3.6 5.9-3.9 9.4" style="fill:none;stroke:#000;stroke-linecap:round;stroke-linejoin:round"/><path id="cK" d="M124.63 679.19c-4.58 7.66-10.24 14.64-13.96 22.8" style="fill:none;stroke:#000;stroke-linecap:round;stroke-linejoin:round"/><path id="cL" d="M116.32 698.99c-1.9 3.39-5.5 6.2-5.83 10.25" style="fill:none;stroke:#000;stroke-linecap:round;stroke-linejoin:round"/><path id="cM" d="M116.85 702.87a174 174 0 0 0-5.13 10.43" style="fill:none;stroke:#000;stroke-linecap:round;stroke-linejoin:round"/><path id="cN" d="M116.32 709.95a53 53 0 0 0-2.47 7.07" style="fill:none;stroke:#000;stroke-linecap:round;stroke-linejoin:round"/><path id="cO" d="M119.85 713.66c.5 4.25-.34 8.73 1.6 12.73" style="fill:none;stroke:#000;stroke-linecap:round;stroke-linejoin:round"/><path id="cP" d="M123.04 718.08c.29 4.08 1.24 8.1 1.24 12.2" style="fill:none;stroke:#000;stroke-linecap:round;stroke-linejoin:round"/><path id="cQ" d="M197.99 622.26c-.46 2.02-.82 3.47-1.92 5.16-.34.5-1.07 1.6-1.44 2.09" style="fill:none;stroke:#000;stroke-linecap:round;stroke-linejoin:round"/><path id="cR" d="M193.57 621.56c-.53 2.2-1 3.43-2.03 5.47a12 12 0 0 1-2.39 3.37" style="fill:none;stroke:#000;stroke-linecap:round;stroke-linejoin:round"/><path id="cS" d="M190.39 621.38a23 23 0 0 1-2.72 6.38c-.46.8-1.75 2.68-2.6 3.36" style="fill:none;stroke:#000;stroke-linecap:round;stroke-linejoin:round"/><path id="cT" d="M186.32 624.21a26 26 0 0 1-2.92 4.72 36 36 0 0 1-1.85 2.35" style="fill:none;stroke:#000;stroke-linecap:round;stroke-linejoin:round"/><path id="cU" d="M182.08 626.15a30 30 0 0 1-2.65 4.6" style="fill:none;stroke:#000;stroke-linecap:round;stroke-linejoin:round"/><path id="cV" d="m177.66 627.92-1.24 2.12" style="fill:none;stroke:#000;stroke-linecap:round;stroke-linejoin:round"/></g><g transform="matrix(-1 0 0 -1 363.02 1564.49)"><use xlink:href="#i" width="360" height="540"/><use xlink:href="#a" width="360" height="540" transform="translate(-20.19 522.36)"/><use xlink:href="#a" width="360" height="540" transform="translate(35.06 510.86)"/><path d="M160.31 573.8c-.33.61.07 1.1.16 1.82.25.7 1.24.47 1.77.2.63-.3.83-.8 1.38-1.24.56-.59.95-1.45 1.82-1.65 1.07-.33 2.2-.26 3.31-.36 1 0 2.01.05 2.98.3.77.17 1.1.91 1.41 1.54.25.57.83.94 1.46.88.83-.12 1.62.18 2.32.62l.33.2" style="fill:none;stroke:#000;stroke-linecap:round;stroke-linejoin:round"/><use xlink:href="#j" width="360" height="540"/><use xlink:href="#k" width="360" height="540"/><use xlink:href="#l" width="360" height="540"/><use xlink:href="#m" width="360" height="540"/><use xlink:href="#n" width="360" height="540"/><use xlink:href="#o" width="360" height="540"/><use xlink:href="#p" width="360" height="540"/><use xlink:href="#q" width="360" height="540"/><use xlink:href="#r" width="360" height="540"/><use xlink:href="#s" width="360" height="540"/><use xlink:href="#t" width="360" height="540"/><use xlink:href="#u" width="360" height="540"/><use xlink:href="#v" width="360" height="540"/><use xlink:href="#w" width="360" height="540"/><use xlink:href="#x" width="360" height="540"/><use xlink:href="#y" width="360" height="540"/><use xlink:href="#z" width="360" height="540"/><use xlink:href="#A" width="360" height="540"/><use xlink:href="#B" width="360" height="540"/><use xlink:href="#C" width="360" height="540"/><use xlink:href="#D" width="360" height="540"/><use xlink:href="#E" width="360" height="540"/><use xlink:href="#F" width="360" height="540"/><use xlink:href="#G" width="360" height="540"/><use xlink:href="#H" width="360" height="540"/><use xlink:href="#I" width="360" height="540"/><use xlink:href="#J" width="360" height="540"/><use xlink:href="#aaa" width="360" height="540"/><use xlink:href="#K" width="360" height="540"/><use xlink:href="#L" width="360" height="540"/><use xlink:href="#M" width="360" height="540"/><use xlink:href="#N" width="360" height="540"/><use xlink:href="#O" width="360" height="540"/><use xlink:href="#P" width="360" height="540"/><use xlink:href="#Q" width="360" height="540"/><use xlink:href="#R" width="360" height="540"/><use xlink:href="#S" width="360" height="540"/><use xlink:href="#T" width="360" height="540"/><use xlink:href="#U" width="360" height="540"/><use xlink:href="#V" width="360" height="540"/><use xlink:href="#W" width="360" height="540"/><use xlink:href="#X" width="360" height="540"/><use xlink:href="#Y" width="360" height="540"/><use xlink:href="#Z" width="360" height="540"/><use xlink:href="#aa" width="360" height="540"/><g transform="matrix(1.0893 .35644 -.57018 .81646 363.99 77.73)"><use xlink:href="#b" width="360" height="540" style="stroke-width:.95700002"/><use xlink:href="#c" width="360" height="540" style="stroke-width:.66600001" transform="matrix(1.64286 0 0 1.25676 -81.06 478.86)"/></g><g transform="matrix(-.58347 -.77797 -.94398 .71706 809.34 276.33)"><use xlink:href="#b" width="360" height="540" style="stroke-width:.93099999"/><use xlink:href="#c" width="360" height="540" style="stroke-width:.648" transform="matrix(1.64286 0 0 1.25676 -81.06 478.86)"/></g><use xlink:href="#b" width="360" height="540"/><use xlink:href="#c" width="360" height="540" style="stroke-width:.69599998" transform="matrix(1.64286 0 0 1.25676 -81.06 478.86)"/><use xlink:href="#ac" width="360" height="540"/><use xlink:href="#ad" width="360" height="540"/><use xlink:href="#ae" width="360" height="540"/><use xlink:href="#af" width="360" height="540"/><use xlink:href="#ag" width="360" height="540"/><use xlink:href="#ah" width="360" height="540"/><use xlink:href="#ai" width="360" height="540"/><g transform="matrix(-.05953 -.97064 -1.18275 .07983 903.75 719.55)"><use xlink:href="#b" width="360" height="540" style="stroke-width:.93099999"/><use xlink:href="#c" width="360" height="540" style="stroke-width:.648" transform="matrix(1.64286 0 0 1.25676 -81.06 478.86)"/></g><use xlink:href="#aj" width="360" height="540"/><use xlink:href="#a" width="360" height="540" transform="translate(-.63 512.36)"/><use xlink:href="#a" width="360" height="540" transform="translate(3.81 515.61)"/><use xlink:href="#a" width="360" height="540" transform="translate(9.19 517.36)"/><use xlink:href="#a" width="360" height="540" transform="translate(14.81 517.24)"/><use xlink:href="#a" width="360" height="540" transform="translate(20.31 516.61)"/><use xlink:href="#a" width="360" height="540" transform="translate(25.81 514.99)"/><use xlink:href="#a" width="360" height="540" transform="translate(30.69 513.11)"/><use xlink:href="#a" width="360" height="540" transform="translate(-16.31 526.11)"/><use xlink:href="#a" width="360" height="540" transform="translate(21.19 534.99)"/><use xlink:href="#a" width="360" height="540" transform="translate(31.19 532.11)"/><use xlink:href="#a" width="360" height="540" transform="translate(36.69 530.49)"/><use xlink:href="#a" width="360" height="540" transform="translate(41.81 528.49)"/><use xlink:href="#a" width="360" height="540" transform="translate(46.81 526.36)"/><use xlink:href="#ak" width="360" height="540"/><use xlink:href="#a" width="360" height="540" transform="translate(26.56 533.74)"/><use xlink:href="#a" width="360" height="540" transform="translate(-14.69 534.49)"/><use xlink:href="#a" width="360" height="540" transform="translate(-16.06 543.61)"/><use xlink:href="#a" width="360" height="540" transform="translate(2.25 550.04)"/><use xlink:href="#a" width="360" height="540" transform="translate(10.24 540.12)"/><use xlink:href="#al" width="360" height="540"/><use xlink:href="#am" width="360" height="540"/><use xlink:href="#an" width="360" height="540"/><use xlink:href="#ao" width="360" height="540"/><use xlink:href="#ap" width="360" height="540"/><use xlink:href="#aq" width="360" height="540"/><use xlink:href="#ar" width="360" height="540"/><use xlink:href="#as" width="360" height="540"/><use xlink:href="#at" width="360" height="540"/><use xlink:href="#au" width="360" height="540"/><use xlink:href="#av" width="360" height="540"/><use xlink:href="#aw" width="360" height="540"/><use xlink:href="#ax" width="360" height="540"/><use xlink:href="#aO" width="360" height="540"/><use xlink:href="#aP" width="360" height="540"/><use xlink:href="#aQ" width="360" height="540"/><use xlink:href="#aR" width="360" height="540"/><use xlink:href="#aS" width="360" height="540"/><use xlink:href="#aT" width="360" height="540"/><use xlink:href="#aU" width="360" height="540"/><use xlink:href="#aV" width="360" height="540"/><use xlink:href="#aW" width="360" height="540"/><use xlink:href="#aX" width="360" height="540"/><use xlink:href="#aY" width="360" height="540"/><use xlink:href="#aZ" width="360" height="540"/><use xlink:href="#ba" width="360" height="540"/><use xlink:href="#bb" width="360" height="540"/><use xlink:href="#bc" width="360" height="540"/><use xlink:href="#bd" width="360" height="540"/><use xlink:href="#be" width="360" height="540"/><use xlink:href="#bf" width="360" height="540"/><use xlink:href="#bg" width="360" height="540"/><use xlink:href="#bh" width="360" height="540"/><use xlink:href="#bi" width="360" height="540"/><use xlink:href="#bj" width="360" height="540"/><use xlink:href="#bk" width="360" height="540"/><use xlink:href="#bl" width="360" height="540"/><use xlink:href="#bm" width="360" height="540"/><use xlink:href="#bn" width="360" height="540"/><use xlink:href="#bo" width="360" height="540"/><use xlink:href="#bp" width="360" height="540"/><use xlink:href="#bq" width="360" height="540"/><use xlink:href="#br" width="360" height="540"/><use xlink:href="#bs" width="360" height="540"/><use xlink:href="#bt" width="360" height="540"/><use xlink:href="#bu" width="360" height="540"/><use xlink:href="#bv" width="360" height="540"/><use xlink:href="#bw" width="360" height="540"/><g style="fill:#005"><use xlink:href="#d" width="360" height="540" transform="translate(0 512.36)"/><use xlink:href="#d" width="360" height="540" transform="translate(13.35 524.91)"/><use xlink:href="#d" width="360" height="540" style="stroke-width:1.10000002" transform="rotate(35.8 -621.4 398.96)scale(.82608 1)"/></g><g style="fill:#a00"><use xlink:href="#d" width="360" height="540" transform="translate(6.45 518.73)"/><use xlink:href="#d" width="360" height="540" transform="translate(19.36 531.28)"/><use xlink:href="#d" width="360" height="540" style="stroke-width:1.23800004" transform="rotate(55.9 -318.16 402.83)scale(.65218 1)"/></g><path d="m224.68 31.06.35 3.89" style="fill:none;stroke:#000;stroke-linecap:round;stroke-linejoin:round" transform="translate(0 512.36)"/><use xlink:href="#bx" width="360" height="540"/><use xlink:href="#by" width="360" height="540"/><use xlink:href="#bz" width="360" height="540"/><use xlink:href="#bA" width="360" height="540"/><use xlink:href="#bB" width="360" height="540"/><use xlink:href="#bC" width="360" height="540"/><use xlink:href="#bD" width="360" height="540"/><use xlink:href="#bE" width="360" height="540"/><use xlink:href="#bF" width="360" height="540"/><use xlink:href="#bG" width="360" height="540"/><use xlink:href="#bH" width="360" height="540"/><use xlink:href="#bI" width="360" height="540"/><use xlink:href="#bJ" width="360" height="540"/><use xlink:href="#bK" width="360" height="540"/><use xlink:href="#bL" width="360" height="540"/><g style="stroke-width:1.21700001"><g transform="matrix(.66282 .45787 -.41495 .73139 386.74 89.4)"><use xlink:href="#h" width="360" height="540"/><use xlink:href="#e" width="360" height="540"/><use xlink:href="#g" width="360" height="540"/><use xlink:href="#f" width="360" height="540"/></g><g transform="matrix(.54231 .59572 -.56939 .6188 511.64 168.95)"><use xlink:href="#h" width="360" height="540"/><use xlink:href="#e" width="360" height="540"/><use xlink:href="#g" width="360" height="540"/><use xlink:href="#f" width="360" height="540"/></g></g><g style="stroke-width:1.36500001" transform="matrix(.49069 .51409 -.4689 .60188 472.31 193.71)"><use xlink:href="#h" width="360" height="540"/><use xlink:href="#e" width="360" height="540"/><use xlink:href="#g" width="360" height="540"/><use xlink:href="#f" width="360" height="540"/></g><g style="stroke-width:1.403" transform="matrix(.49933 .45787 -.3126 .73139 365.84 87.54)"><use xlink:href="#h" width="360" height="540"/><use xlink:href="#e" width="360" height="540"/><use xlink:href="#g" width="360" height="540"/><use xlink:href="#f" width="360" height="540"/></g><use xlink:href="#bM" width="360" height="540"/><use xlink:href="#bN" width="360" height="540"/><use xlink:href="#bO" width="360" height="540"/><use xlink:href="#bP" width="360" height="540"/><use xlink:href="#bQ" width="360" height="540"/><use xlink:href="#bR" width="360" height="540"/><use xlink:href="#bS" width="360" height="540"/><use xlink:href="#bT" width="360" height="540"/><use xlink:href="#bU" width="360" height="540"/><use xlink:href="#bV" width="360" height="540"/><use xlink:href="#bW" width="360" height="540"/><use xlink:href="#bX" width="360" height="540"/><use xlink:href="#bY" width="360" height="540"/><use xlink:href="#bZ" width="360" height="540"/><use xlink:href="#ca" width="360" height="540"/><use xlink:href="#cb" width="360" height="540"/><use xlink:href="#cc" width="360" height="540"/><use xlink:href="#cd" width="360" height="540"/><use xlink:href="#ce" width="360" height="540"/><use xlink:href="#cf" width="360" height="540"/><use xlink:href="#cg" width="360" height="540"/><use xlink:href="#ch" width="360" height="540"/><use xlink:href="#ci" width="360" height="540"/><use xlink:href="#cj" width="360" height="540"/><use xlink:href="#ck" width="360" height="540"/><use xlink:href="#cl" width="360" height="540"/><use xlink:href="#cm" width="360" height="540"/><use xlink:href="#cn" width="360" height="540"/><use xlink:href="#co" width="360" height="540"/><use xlink:href="#cp" width="360" height="540"/><use xlink:href="#cq" width="360" height="540"/><use xlink:href="#cr" width="360" height="540"/><use xlink:href="#cs" width="360" height="540"/><use xlink:href="#ct" width="360" height="540"/><use xlink:href="#cu" width="360" height="540"/><use xlink:href="#cv" width="360" height="540"/><use xlink:href="#cw" width="360" height="540"/><use xlink:href="#cx" width="360" height="540"/><use xlink:href="#cy" width="360" height="540"/><use xlink:href="#cz" width="360" height="540"/><use xlink:href="#cA" width="360" height="540"/><use xlink:href="#cB" width="360" height="540"/><use xlink:href="#cC" width="360" height="540"/><use xlink:href="#cD" width="360" height="540"/><use xlink:href="#cE" width="360" height="540"/><use xlink:href="#cF" width="360" height="540"/><use xlink:href="#cG" width="360" height="540"/><use xlink:href="#cH" width="360" height="540"/><use xlink:href="#cI" width="360" height="540"/><use xlink:href="#cJ" width="360" height="540"/><use xlink:href="#cK" width="360" height="540"/><use xlink:href="#cL" width="360" height="540"/><use xlink:href="#cM" width="360" height="540"/><use xlink:href="#cN" width="360" height="540"/><use xlink:href="#cO" width="360" height="540"/><use xlink:href="#cP" width="360" height="540"/><use xlink:href="#cQ" width="360" height="540"/><use xlink:href="#cR" width="360" height="540"/><use xlink:href="#cS" width="360" height="540"/><use xlink:href="#cT" width="360" height="540"/><use xlink:href="#cU" width="360" height="540"/><use xlink:href="#cV" width="360" height="540"/></g><path d="M30 602.36c-.5 2.5-1.07 3.15-2 4.5-.8 1.17-1.92 2.09-3 3-1.1.93-2.34 1.65-3.5 2.5-1.34.98-2.93 1.72-4 3-1.2 1.43-2.5 3.14-2.5 5 0 1.5.9 3 2 4a7.5 7.5 0 0 0 5 2 8.6 8.6 0 0 0 5.5-2.5c1.07-1.03 2-4 2-4v1c0 .5-.05 2.73-.5 4a12 12 0 0 1-2.5 4c-1.13 1.23-4 3-4 3v.5s3.98-.83 6-1q1.5-.12 3 0c2.02.17 6 1 6 1v-.5s-2.87-1.77-4-3a12 12 0 0 1-2.5-4c-.45-1.27-.5-4-.5-4v-1s.93 2.97 2 4a8.6 8.6 0 0 0 5.5 2.5c1.8.04 3.68-.78 5-2 1.1-1.01 2-2.5 2-4 0-1.86-1.3-3.57-2.5-5-1.07-1.28-2.65-2.02-4-3-1.16-.85-2.4-1.57-3.5-2.5-1.08-.91-2.2-1.83-3-3-.93-1.35-1.5-2-2-4.5m300 360c-.5-2.5-1.07-3.15-2-4.5-.8-1.17-1.92-2.09-3-3-1.1-.93-2.34-1.65-3.5-2.5-1.34-.98-2.93-1.72-4-3-1.2-1.43-2.5-3.14-2.5-5 0-1.5.9-3 2-4a7.5 7.5 0 0 1 5-2 8.6 8.6 0 0 1 5.5 2.5c1.07 1.03 2 4 2 4v-1c0-.5-.05-2.73-.5-4a12 12 0 0 0-2.5-4c-1.13-1.23-4-3-4-3v-.5s3.98.83 6 1q1.5.12 3 0c2.02-.17 6-1 6-1v.5s-2.87 1.77-4 3a12 12 0 0 0-2.5 4c-.45 1.27-.5 4-.5 4v1s.93-2.97 2-4a8.6 8.6 0 0 1 5.5-2.5c1.8-.04 3.68.79 5 2 1.1 1.01 2 2.5 2 4 0 1.86-1.3 3.57-2.5 5-1.07 1.28-2.65 2.02-4 3-1.16.85-2.4 1.57-3.5 2.5-1.08.91-2.2 1.83-3 3-.93 1.35-1.5 2-2 4.5M90.02 552.35c-1.37 6.67-2.88 8.37-5.34 12-2.13 3.07-5.15 5.53-8.03 7.99s-6.24 4.4-9.3 6.66c-3.6 2.65-7.85 4.59-10.69 7.99-3.16 3.83-6.66 8.36-6.66 13.37 0 3.97 2.4 7.94 5.34 10.63 3.5 3.26 8.55 5.48 13.32 5.34 5.4-.1 10.83-2.93 14.7-6.66 2.84-2.74 5.3-10.68 5.3-10.68v2.7c0 1.32-.1 7.27-1.33 10.67A31 31 0 0 1 80.67 623c-3.02 3.3-10.68 8.03-10.68 8.03v1.32s10.63-2.22 16.02-2.65c2.64-.23 5.34-.23 7.98 0 5.39.43 16.02 2.65 16.02 2.65v-1.33s-7.65-4.72-10.68-8.03a32 32 0 0 1-6.66-10.63c-1.18-3.4-1.32-10.68-1.32-10.68V599s2.46 7.94 5.34 10.68c3.87 3.73 9.3 6.57 14.65 6.66 4.82.15 9.83-2.08 13.32-5.34 2.93-2.69 5.34-6.66 5.34-10.63 0-5-3.45-9.54-6.66-13.37-2.84-3.4-7.09-5.34-10.68-7.99-3.07-2.27-6.38-4.2-9.3-6.66-2.9-2.46-5.87-4.91-8-7.99-2.5-3.64-4.02-5.34-5.34-12m180 460.01c-1.37-6.67-2.88-8.37-5.34-12-2.13-3.08-5.15-5.53-8.03-7.99s-6.24-4.4-9.3-6.66c-3.6-2.65-7.85-4.59-10.69-7.99-3.16-3.83-6.66-8.36-6.66-13.37 0-3.97 2.4-7.94 5.34-10.63 3.5-3.26 8.55-5.49 13.32-5.34 5.4.1 10.83 2.93 14.7 6.66 2.84 2.74 5.3 10.68 5.3 10.68v-2.7c0-1.32-.1-7.27-1.33-10.67a31 31 0 0 0-6.66-10.64c-3.02-3.3-10.68-8.03-10.68-8.03v-1.32s10.63 2.22 16.02 2.65c2.64.23 5.34.23 7.98 0 5.39-.43 16.02-2.65 16.02-2.65v1.32s-7.65 4.73-10.68 8.03a32 32 0 0 0-6.66 10.64c-1.18 3.4-1.32 10.67-1.32 10.67v2.7s2.45-7.94 5.34-10.68c3.87-3.73 9.3-6.57 14.65-6.66 4.82-.15 9.83 2.07 13.32 5.34 2.93 2.69 5.34 6.66 5.34 10.63 0 5-3.45 9.54-6.66 13.37-2.84 3.4-7.09 5.34-10.68 7.99-3.07 2.26-6.38 4.2-9.3 6.66-2.9 2.46-5.87 4.91-8 7.99-2.5 3.63-4.02 5.34-5.34 12"/></g></svg>